<svg xmlns="http://www.w3.org/2000/svg" id="Layer_2" data-name="Layer 2" viewBox="0 0 851.17 318.16"><defs><style>      .cls-1 {        fill: #3f74ba;      }      .cls-2 {        fill: #b5ccdb;      }      .cls-3 {        fill: #2a4485;      }    </style></defs><g id="Layer_1-2" data-name="Layer 1"><g><g><path class="cls-3" d="m4.72,3.8H0v-1.66h11.3v1.66h-4.72v12.74h-1.85V3.8Z"></path><path class="cls-3" d="m20.22,6.26l-3.91,10.29-.44,1.15c-.9,2.39-1.89,3.15-3.63,3.15-.59,0-1.2-.1-1.53-.25l.15-1.64c.36.15.61.21.99.21.97,0,1.7-.21,2.29-1.64l.25-.59-4.05-10.69h2.08l2.6,7.31c.15.38.23.67.34,1.09h.04c.08-.42.17-.71.29-1.09l2.65-7.31h1.89Z"></path><path class="cls-3" d="m32.11,11.27c0,3.17-1.93,5.38-4.81,5.38-1.68,0-2.77-.69-3.38-1.68v5.77h-1.85V6.26h1.81l.04,1.72c.65-1.05,1.83-1.83,3.51-1.83,2.79,0,4.68,1.99,4.68,5.12Zm-1.89.04c0-2.18-1.15-3.59-3-3.59-2.25,0-3.3,1.91-3.3,3.42v.46c0,1.55,1.01,3.46,3.25,3.46,1.85,0,3.04-1.53,3.04-3.76Z"></path><path class="cls-3" d="m43.53,11.88h-7.68c.15,1.95,1.26,3.19,3.07,3.19s2.5-.94,2.69-1.78h1.87c-.4,1.87-1.83,3.36-4.58,3.36-3.21,0-4.96-2.2-4.96-5.23s2.04-5.27,4.91-5.27,4.68,1.95,4.68,5.27v.46Zm-7.64-1.36h5.77c-.23-1.85-1.24-2.79-2.79-2.79s-2.69,1.07-2.98,2.79Z"></path><path class="cls-3" d="m60.35,11.38c0,3.11-2.02,5.27-5.1,5.27s-5.08-2.04-5.08-5.14,2.04-5.35,5.08-5.35,5.1,2.1,5.1,5.23Zm-8.29.06c0,2.16,1.28,3.63,3.19,3.63s3.21-1.47,3.21-3.63-1.26-3.72-3.21-3.72-3.19,1.53-3.19,3.72Z"></path><path class="cls-3" d="m65.02,4.91v1.34h3.28v1.55h-3.28v8.73h-1.85V7.81h-1.45v-1.55h1.45v-1.34c0-2.1,1.62-3.49,3.74-3.49.59,0,1.34.1,1.53.19l-.08,1.62c-.25-.1-.9-.19-1.34-.19-1.39,0-1.99.84-1.99,1.87Z"></path><path class="cls-3" d="m84.57,12.79c0,2.33-2.14,3.88-5.31,3.88-3.38,0-5.42-1.53-5.42-4.26h1.83c0,1.64,1.3,2.62,3.74,2.62,2.06,0,3.32-.82,3.3-2.25,0-4.07-8.48-1.11-8.48-6.89,0-2.37,2.06-3.88,5.14-3.88s5.04,1.53,5.02,4.16h-1.83c0-1.74-1.28-2.52-3.25-2.52-2.23,0-3.21.8-3.21,2.2,0,3.88,8.48.99,8.48,6.93Z"></path><path class="cls-3" d="m97.12,11.27c0,3.17-1.93,5.38-4.81,5.38-1.68,0-2.77-.69-3.38-1.68v5.77h-1.85V6.26h1.81l.04,1.72c.65-1.05,1.83-1.83,3.51-1.83,2.79,0,4.68,1.99,4.68,5.12Zm-1.89.04c0-2.18-1.15-3.59-3-3.59-2.25,0-3.3,1.91-3.3,3.42v.46c0,1.55,1.01,3.46,3.25,3.46,1.85,0,3.04-1.53,3.04-3.76Z"></path><path class="cls-3" d="m108.55,11.88h-7.68c.15,1.95,1.26,3.19,3.07,3.19s2.5-.94,2.69-1.78h1.87c-.4,1.87-1.83,3.36-4.58,3.36-3.21,0-4.96-2.2-4.96-5.23s2.04-5.27,4.91-5.27,4.68,1.95,4.68,5.27v.46Zm-7.64-1.36h5.77c-.23-1.85-1.24-2.79-2.79-2.79s-2.69,1.07-2.98,2.79Z"></path><path class="cls-3" d="m110.35,11.44c0-3.09,1.99-5.29,4.91-5.29,2.69,0,4.26,1.51,4.54,3.86h-1.97c-.21-1.28-.99-2.29-2.54-2.29-1.85,0-3.04,1.45-3.04,3.67s1.09,3.67,3,3.67c1.6,0,2.37-1.01,2.58-2.23h1.97c-.31,2.29-1.91,3.8-4.64,3.8-3.13,0-4.81-2.18-4.81-5.21Z"></path><path class="cls-3" d="m123.1,4.16c-.71,0-1.28-.52-1.28-1.26s.57-1.26,1.28-1.26,1.28.55,1.28,1.26-.57,1.26-1.28,1.26Zm-.99,2.1h1.87v10.29h-1.87V6.26Z"></path><path class="cls-3" d="m136.54,16.48c-.36.1-.73.17-1.18.17-1.07,0-1.78-.67-1.91-1.68-.38.59-1.32,1.68-3.61,1.68s-3.49-1.15-3.49-2.79c0-2.23,2.06-3.15,4.91-3.15h2.16v-.67c0-1.43-.88-2.31-2.54-2.31-1.47,0-2.37.69-2.5,1.93h-1.81c.17-2.23,1.91-3.51,4.43-3.51,2.71,0,4.26,1.45,4.26,3.93v4.2c0,.44.25.69.59.69.19,0,.32-.02.53-.1l.15,1.62Zm-3.11-3.72v-.71h-2.27c-1.93,0-2.92.59-2.92,1.72,0,.86.59,1.39,1.97,1.39,2.08,0,3.21-1.45,3.21-2.39Z"></path><path class="cls-3" d="m141.56,16.48c-.36.1-.74.17-1.18.17-1.2,0-1.93-.82-1.93-2.02V1.64h1.85v12.64c0,.44.27.69.63.69.17,0,.27-.02.48-.1l.15,1.62Z"></path><path class="cls-3" d="m158.67,12.79c0,2.33-2.14,3.88-5.31,3.88-3.38,0-5.42-1.53-5.42-4.26h1.83c0,1.64,1.3,2.62,3.74,2.62,2.06,0,3.32-.82,3.3-2.25,0-4.07-8.48-1.11-8.48-6.89,0-2.37,2.06-3.88,5.14-3.88s5.04,1.53,5.02,4.16h-1.83c0-1.74-1.28-2.52-3.25-2.52-2.23,0-3.21.8-3.21,2.2,0,3.88,8.48.99,8.48,6.93Z"></path><path class="cls-3" d="m170.68,16.48c-.36.1-.73.17-1.18.17-1.07,0-1.78-.67-1.91-1.68-.38.59-1.32,1.68-3.61,1.68s-3.49-1.15-3.49-2.79c0-2.23,2.06-3.15,4.91-3.15h2.16v-.67c0-1.43-.88-2.31-2.54-2.31-1.47,0-2.37.69-2.5,1.93h-1.8c.17-2.23,1.91-3.51,4.43-3.51,2.71,0,4.26,1.45,4.26,3.93v4.2c0,.44.25.69.59.69.19,0,.32-.02.53-.1l.15,1.62Zm-3.11-3.72v-.71h-2.27c-1.93,0-2.92.59-2.92,1.72,0,.86.59,1.39,1.97,1.39,2.08,0,3.21-1.45,3.21-2.39Z"></path><path class="cls-3" d="m181.04,6.26l-3.95,10.29h-2.02l-4.01-10.29h2.08l2.65,7.31c.15.38.23.67.34,1.09h.04c.08-.42.17-.71.29-1.09l2.69-7.31h1.89Z"></path><path class="cls-3" d="m183.92,4.16c-.71,0-1.28-.52-1.28-1.26s.57-1.26,1.28-1.26,1.28.55,1.28,1.26-.57,1.26-1.28,1.26Zm-.99,2.1h1.87v10.29h-1.87V6.26Z"></path><path class="cls-3" d="m196.7,10.06v6.49h-1.87v-6.11c0-1.74-.82-2.71-2.35-2.71-1.66,0-2.77,1.09-2.77,2.83v5.98h-1.85V6.26h1.74l.08,1.53c.65-.94,1.74-1.64,3.3-1.64,2.27,0,3.72,1.39,3.72,3.91Z"></path><path class="cls-3" d="m208.99,6.26v10.5c0,2.39-1.74,4.2-4.96,4.2-2.79,0-4.39-1.13-4.64-3.3h1.85c.23,1.24,1.11,1.72,2.77,1.72,2.16,0,3.13-1.2,3.13-2.62v-1.78c-.61.99-1.68,1.68-3.34,1.68-2.83,0-4.77-2.1-4.77-5.27s1.93-5.23,4.77-5.23c1.68,0,2.75.71,3.36,1.72l.08-1.62h1.74Zm-1.85,5.35v-.42c0-1.55-1.01-3.46-3.21-3.46-1.81,0-3,1.47-3,3.65s1.2,3.7,3,3.7c2.2,0,3.21-1.91,3.21-3.46Z"></path><path class="cls-3" d="m219.55,13.75c0,1.7-1.47,2.9-4.12,2.9-2.83,0-4.05-1.13-4.09-3.13l1.7.02c.11.99.73,1.53,2.41,1.53s2.27-.55,2.27-1.32c0-2.39-6.11-.69-6.11-4.7,0-1.7,1.45-2.9,3.95-2.9s3.76,1.13,3.84,3.13l-1.72-.02c-.08-1.01-.86-1.53-2.16-1.53-1.41,0-2.08.5-2.08,1.32,0,2.35,6.11.57,6.11,4.7Z"></path></g><g><path class="cls-1" d="m23.34,150.39v1.64h-9.68v-14.4h9.57v1.66h-7.73v4.43h7.05v1.66h-7.05v5.02h7.83Z"></path><path class="cls-1" d="m35.03,137.12v14.91h-1.81l-.04-1.72c-.65,1.05-1.83,1.83-3.51,1.83-2.79,0-4.68-1.99-4.68-5.12s1.93-5.38,4.81-5.38c1.68,0,2.77.69,3.38,1.68v-6.19h1.85Zm-1.85,10.02v-.46c0-1.55-1.01-3.46-3.25-3.46-1.85,0-3.04,1.53-3.04,3.76s1.15,3.59,3,3.59c2.25,0,3.3-1.91,3.3-3.42Z"></path><path class="cls-1" d="m46.63,141.74v10.29h-1.74l-.08-1.51c-.63.94-1.7,1.62-3.17,1.62-2.25,0-3.63-1.43-3.63-3.67v-6.72h1.87v6.45c0,1.51.82,2.37,2.31,2.37s2.6-1.05,2.6-2.83v-5.98h1.85Z"></path><path class="cls-1" d="m49.06,146.93c0-3.09,1.99-5.29,4.91-5.29,2.69,0,4.26,1.51,4.54,3.86h-1.97c-.21-1.28-.99-2.29-2.54-2.29-1.85,0-3.04,1.45-3.04,3.67s1.09,3.67,3,3.67c1.6,0,2.37-1.01,2.58-2.23h1.97c-.31,2.29-1.91,3.8-4.64,3.8-3.13,0-4.81-2.18-4.81-5.21Z"></path><path class="cls-1" d="m70.31,151.97c-.36.1-.73.17-1.18.17-1.07,0-1.78-.67-1.91-1.68-.38.59-1.32,1.68-3.61,1.68s-3.49-1.15-3.49-2.79c0-2.23,2.06-3.15,4.91-3.15h2.16v-.67c0-1.43-.88-2.31-2.54-2.31-1.47,0-2.37.69-2.5,1.93h-1.81c.17-2.23,1.91-3.51,4.43-3.51,2.71,0,4.26,1.45,4.26,3.93v4.2c0,.44.25.69.59.69.19,0,.31-.02.52-.1l.15,1.62Zm-3.11-3.72v-.71h-2.27c-1.93,0-2.92.59-2.92,1.72,0,.86.59,1.39,1.97,1.39,2.08,0,3.21-1.45,3.21-2.39Z"></path><path class="cls-1" d="m78.02,151.89c-.34.15-.97.25-1.62.25-2.39,0-3.82-1.34-3.82-3.49v-5.31h-1.55v-1.6h1.66v-3.07h1.74v3.07h3.34v1.55h-3.34v5.35c0,1.03.48,1.87,2.16,1.87.46,0,.9-.06,1.34-.25l.08,1.62Z"></path><path class="cls-1" d="m80.88,139.64c-.71,0-1.28-.52-1.28-1.26s.57-1.26,1.28-1.26,1.28.55,1.28,1.26-.57,1.26-1.28,1.26Zm-.99,2.1h1.87v10.29h-1.87v-10.29Z"></path><path class="cls-1" d="m94.38,146.87c0,3.11-2.02,5.27-5.1,5.27s-5.08-2.04-5.08-5.14,2.04-5.35,5.08-5.35,5.1,2.1,5.1,5.23Zm-8.29.06c0,2.16,1.28,3.63,3.19,3.63s3.21-1.47,3.21-3.63-1.26-3.72-3.21-3.72-3.19,1.53-3.19,3.72Z"></path><path class="cls-1" d="m105.66,145.54v6.49h-1.87v-6.11c0-1.74-.82-2.71-2.35-2.71-1.66,0-2.77,1.09-2.77,2.83v5.98h-1.85v-10.29h1.74l.08,1.53c.65-.94,1.74-1.64,3.3-1.64,2.27,0,3.72,1.39,3.72,3.91Z"></path><path class="cls-1" d="m123.53,148.27c0,2.33-2.14,3.88-5.31,3.88-3.38,0-5.42-1.53-5.42-4.26h1.83c0,1.64,1.3,2.62,3.74,2.62,2.06,0,3.32-.82,3.3-2.25,0-4.07-8.48-1.11-8.48-6.89,0-2.37,2.06-3.88,5.14-3.88s5.04,1.53,5.02,4.16h-1.83c0-1.74-1.28-2.52-3.25-2.52-2.23,0-3.21.8-3.21,2.2,0,3.88,8.48.99,8.48,6.93Z"></path><path class="cls-1" d="m135.54,151.97c-.36.1-.73.17-1.18.17-1.07,0-1.78-.67-1.91-1.68-.38.59-1.32,1.68-3.61,1.68s-3.49-1.15-3.49-2.79c0-2.23,2.06-3.15,4.91-3.15h2.16v-.67c0-1.43-.88-2.31-2.54-2.31-1.47,0-2.37.69-2.5,1.93h-1.81c.17-2.23,1.91-3.51,4.43-3.51,2.71,0,4.26,1.45,4.26,3.93v4.2c0,.44.25.69.59.69.19,0,.32-.02.53-.1l.15,1.62Zm-3.11-3.72v-.71h-2.27c-1.93,0-2.92.59-2.92,1.72,0,.86.59,1.39,1.97,1.39,2.08,0,3.21-1.45,3.21-2.39Z"></path><path class="cls-1" d="m145.89,141.74l-3.95,10.29h-2.02l-4.01-10.29h2.08l2.65,7.31c.15.38.23.67.34,1.09h.04c.08-.42.17-.71.29-1.09l2.69-7.31h1.89Z"></path><path class="cls-1" d="m148.77,139.64c-.71,0-1.28-.52-1.28-1.26s.57-1.26,1.28-1.26,1.28.55,1.28,1.26-.57,1.26-1.28,1.26Zm-.99,2.1h1.87v10.29h-1.87v-10.29Z"></path><path class="cls-1" d="m161.56,145.54v6.49h-1.87v-6.11c0-1.74-.82-2.71-2.35-2.71-1.66,0-2.77,1.09-2.77,2.83v5.98h-1.85v-10.29h1.74l.08,1.53c.65-.94,1.74-1.64,3.3-1.64,2.27,0,3.72,1.39,3.72,3.91Z"></path><path class="cls-1" d="m173.84,141.74v10.5c0,2.39-1.74,4.2-4.96,4.2-2.79,0-4.39-1.13-4.64-3.3h1.85c.23,1.24,1.11,1.72,2.77,1.72,2.16,0,3.13-1.2,3.13-2.62v-1.78c-.61.99-1.68,1.68-3.34,1.68-2.83,0-4.77-2.1-4.77-5.27s1.93-5.23,4.77-5.23c1.68,0,2.75.71,3.36,1.72l.08-1.62h1.74Zm-1.85,5.35v-.42c0-1.55-1.01-3.46-3.21-3.46-1.81,0-3,1.47-3,3.65s1.2,3.7,3,3.7c2.21,0,3.21-1.91,3.21-3.46Z"></path><path class="cls-1" d="m184.4,149.24c0,1.7-1.47,2.9-4.12,2.9-2.83,0-4.05-1.13-4.09-3.13l1.7.02c.1.99.74,1.53,2.42,1.53s2.27-.55,2.27-1.32c0-2.39-6.11-.69-6.11-4.7,0-1.7,1.45-2.9,3.95-2.9s3.76,1.13,3.84,3.13l-1.72-.02c-.08-1.01-.86-1.53-2.16-1.53-1.41,0-2.08.5-2.08,1.32,0,2.35,6.11.57,6.11,4.7Z"></path><path class="cls-1" d="m187.91,152.37s-.12.02-.27.02c-.8,0-1.28-.55-1.28-1.28,0-.8.57-1.3,1.32-1.3.71,0,1.43.46,1.43,1.85,0,2.04-1.51,3.49-2.75,3.42v-1.05c.76,0,1.55-.82,1.55-1.66Z"></path><path class="cls-1" d="m24.81,189.97c-.36.1-.73.17-1.18.17-1.83,0-2.58-.94-3.34-2.33l-1.91-3.57h-2.88v5.79h-1.85v-14.4h5.27c2.69,0,4.68,1.51,4.68,4.35,0,2.2-1.24,3.57-3.07,4.05l1.76,3.42c.46.86,1.01,1.01,1.51,1.01.36,0,.63-.02.84-.1l.15,1.62Zm-5.88-7.26c1.87,0,2.81-1.15,2.81-2.73s-.94-2.73-2.81-2.73h-3.42v5.46h3.42Z"></path><path class="cls-1" d="m35.52,185.37h-7.68c.15,1.95,1.26,3.19,3.07,3.19s2.5-.94,2.69-1.78h1.87c-.4,1.87-1.83,3.36-4.58,3.36-3.21,0-4.96-2.2-4.96-5.23s2.04-5.27,4.91-5.27,4.68,1.95,4.68,5.27v.46Zm-7.64-1.36h5.77c-.23-1.85-1.24-2.79-2.79-2.79s-2.69,1.07-2.98,2.79Z"></path><path class="cls-1" d="m43.69,189.89c-.34.15-.97.25-1.62.25-2.39,0-3.82-1.34-3.82-3.49v-5.31h-1.55v-1.6h1.66v-3.07h1.74v3.07h3.34v1.55h-3.34v5.35c0,1.03.48,1.87,2.16,1.87.46,0,.9-.06,1.34-.25l.08,1.62Z"></path><path class="cls-1" d="m46.54,177.64c-.71,0-1.28-.52-1.28-1.26s.57-1.26,1.28-1.26,1.28.55,1.28,1.26-.57,1.26-1.28,1.26Zm-.99,2.1h1.87v10.29h-1.87v-10.29Z"></path><path class="cls-1" d="m55.57,179.7l-.02,1.83c-.08-.04-.27-.08-.69-.08-1.3,0-2.52,1.09-2.52,3.17v5.42h-1.85v-10.29h1.74l.04,1.66c.5-1.01,1.36-1.76,2.71-1.76.27,0,.46.04.59.06Z"></path><path class="cls-1" d="m66.11,185.37h-7.68c.15,1.95,1.26,3.19,3.07,3.19s2.5-.94,2.69-1.78h1.87c-.4,1.87-1.83,3.36-4.58,3.36-3.21,0-4.96-2.2-4.96-5.23s2.04-5.27,4.91-5.27,4.68,1.95,4.68,5.27v.46Zm-7.64-1.36h5.77c-.23-1.85-1.24-2.79-2.79-2.79s-2.69,1.07-2.98,2.79Z"></path><path class="cls-1" d="m84.05,183.48v6.55h-1.87v-6.17c0-1.72-.88-2.65-2.33-2.65-1.57,0-2.62,1.05-2.62,2.83v5.98h-1.87v-6.17c0-1.72-.88-2.65-2.33-2.65-1.57,0-2.62,1.05-2.62,2.83v5.98h-1.85v-10.29h1.74l.08,1.49c.63-.92,1.68-1.6,3.15-1.6,1.66,0,2.83.78,3.38,2.1.57-1.2,1.72-2.1,3.44-2.1,2.29,0,3.7,1.49,3.7,3.84Z"></path><path class="cls-1" d="m95.98,185.37h-7.68c.15,1.95,1.26,3.19,3.07,3.19s2.5-.94,2.69-1.78h1.87c-.4,1.87-1.83,3.36-4.58,3.36-3.21,0-4.96-2.2-4.96-5.23s2.04-5.27,4.91-5.27,4.68,1.95,4.68,5.27v.46Zm-7.64-1.36h5.77c-.23-1.85-1.24-2.79-2.79-2.79s-2.69,1.07-2.98,2.79Z"></path><path class="cls-1" d="m107.25,183.54v6.49h-1.87v-6.11c0-1.74-.82-2.71-2.35-2.71-1.66,0-2.77,1.09-2.77,2.83v5.98h-1.85v-10.29h1.74l.08,1.53c.65-.94,1.74-1.64,3.3-1.64,2.27,0,3.72,1.39,3.72,3.91Z"></path><path class="cls-1" d="m116.01,189.89c-.34.15-.97.25-1.62.25-2.39,0-3.82-1.34-3.82-3.49v-5.31h-1.55v-1.6h1.66v-3.07h1.74v3.07h3.34v1.55h-3.34v5.35c0,1.03.48,1.87,2.16,1.87.46,0,.9-.06,1.34-.25l.08,1.62Z"></path><path class="cls-1" d="m132.79,186.27c0,2.33-2.14,3.88-5.31,3.88-3.38,0-5.42-1.53-5.42-4.26h1.83c0,1.64,1.3,2.62,3.74,2.62,2.06,0,3.32-.82,3.3-2.25,0-4.07-8.48-1.11-8.48-6.89,0-2.37,2.06-3.88,5.14-3.88s5.04,1.53,5.02,4.16h-1.83c0-1.74-1.28-2.52-3.25-2.52-2.23,0-3.21.8-3.21,2.2,0,3.88,8.48.99,8.48,6.93Z"></path><path class="cls-1" d="m144.8,189.97c-.36.1-.74.17-1.18.17-1.07,0-1.79-.67-1.91-1.68-.38.59-1.32,1.68-3.61,1.68s-3.49-1.15-3.49-2.79c0-2.23,2.06-3.15,4.91-3.15h2.16v-.67c0-1.43-.88-2.31-2.54-2.31-1.47,0-2.37.69-2.5,1.93h-1.81c.17-2.23,1.91-3.51,4.43-3.51,2.71,0,4.26,1.45,4.26,3.93v4.2c0,.44.25.69.59.69.19,0,.31-.02.52-.1l.15,1.62Zm-3.11-3.72v-.71h-2.27c-1.93,0-2.92.59-2.92,1.72,0,.86.59,1.39,1.97,1.39,2.08,0,3.21-1.45,3.21-2.39Z"></path><path class="cls-1" d="m155.15,179.74l-3.95,10.29h-2.02l-4.01-10.29h2.08l2.65,7.31c.15.38.23.67.34,1.09h.04c.08-.42.17-.71.29-1.09l2.69-7.31h1.89Z"></path><path class="cls-1" d="m158.03,177.64c-.71,0-1.28-.52-1.28-1.26s.57-1.26,1.28-1.26,1.28.55,1.28,1.26-.57,1.26-1.28,1.26Zm-.99,2.1h1.87v10.29h-1.87v-10.29Z"></path><path class="cls-1" d="m170.82,183.54v6.49h-1.87v-6.11c0-1.74-.82-2.71-2.35-2.71-1.66,0-2.77,1.09-2.77,2.83v5.98h-1.85v-10.29h1.74l.08,1.53c.65-.94,1.74-1.64,3.3-1.64,2.27,0,3.72,1.39,3.72,3.91Z"></path><path class="cls-1" d="m183.1,179.74v10.5c0,2.39-1.74,4.2-4.96,4.2-2.79,0-4.39-1.13-4.64-3.3h1.85c.23,1.24,1.11,1.72,2.77,1.72,2.16,0,3.13-1.2,3.13-2.62v-1.78c-.61.99-1.68,1.68-3.34,1.68-2.83,0-4.77-2.1-4.77-5.27s1.93-5.23,4.77-5.23c1.68,0,2.75.71,3.36,1.72l.08-1.62h1.74Zm-1.85,5.35v-.42c0-1.55-1.01-3.46-3.21-3.46-1.81,0-3,1.47-3,3.65s1.2,3.7,3,3.7c2.2,0,3.21-1.91,3.21-3.46Z"></path><path class="cls-1" d="m193.67,187.24c0,1.7-1.47,2.9-4.12,2.9-2.83,0-4.05-1.13-4.09-3.13l1.7.02c.11.99.73,1.53,2.41,1.53s2.27-.55,2.27-1.32c0-2.39-6.11-.69-6.11-4.7,0-1.7,1.45-2.9,3.95-2.9s3.76,1.13,3.84,3.13l-1.72-.02c-.08-1.01-.86-1.53-2.16-1.53-1.41,0-2.08.5-2.08,1.32,0,2.35,6.11.57,6.11,4.7Z"></path></g><g><path class="cls-1" d="m383.55,76.19v1.64h-6.91v-1.64h2.77v-10.06c-.71.44-1.43.59-2.77.59v-1.6c1.58,0,2.6-.5,3.25-1.7h1.36v12.77h2.29Z"></path><path class="cls-1" d="m384.79,70.63c0-4.77,2.04-7.37,5.42-7.37s5.4,2.6,5.4,7.37-2.02,7.31-5.4,7.31-5.42-2.54-5.42-7.31Zm8.95,0c0-3.74-1.26-5.73-3.53-5.73s-3.55,1.99-3.55,5.73,1.28,5.67,3.55,5.67,3.53-1.91,3.53-5.67Z"></path><path class="cls-1" d="m398.88,78.16s-.13.02-.27.02c-.8,0-1.28-.55-1.28-1.28,0-.8.57-1.3,1.32-1.3.71,0,1.43.46,1.43,1.85,0,2.04-1.51,3.49-2.75,3.42v-1.05c.76,0,1.55-.82,1.55-1.66Z"></path><path class="cls-1" d="m401.76,70.63c0-4.77,2.04-7.37,5.42-7.37s5.4,2.6,5.4,7.37-2.02,7.31-5.4,7.31-5.42-2.54-5.42-7.31Zm8.94,0c0-3.74-1.26-5.73-3.53-5.73s-3.55,1.99-3.55,5.73,1.28,5.67,3.55,5.67,3.53-1.91,3.53-5.67Z"></path><path class="cls-1" d="m414.71,70.63c0-4.77,2.04-7.37,5.42-7.37s5.4,2.6,5.4,7.37-2.02,7.31-5.4,7.31-5.42-2.54-5.42-7.31Zm8.95,0c0-3.74-1.26-5.73-3.53-5.73s-3.55,1.99-3.55,5.73,1.28,5.67,3.55,5.67,3.53-1.91,3.53-5.67Z"></path><path class="cls-1" d="m427.67,70.63c0-4.77,2.04-7.37,5.42-7.37s5.4,2.6,5.4,7.37-2.02,7.31-5.4,7.31-5.42-2.54-5.42-7.31Zm8.94,0c0-3.74-1.26-5.73-3.53-5.73s-3.55,1.99-3.55,5.73,1.28,5.67,3.55,5.67,3.53-1.91,3.53-5.67Z"></path><path class="cls-1" d="m455.41,77.77c-.36.1-.73.17-1.18.17-1.07,0-1.78-.67-1.91-1.68-.38.59-1.32,1.68-3.61,1.68s-3.49-1.15-3.49-2.79c0-2.23,2.06-3.15,4.91-3.15h2.16v-.67c0-1.43-.88-2.31-2.54-2.31-1.47,0-2.37.69-2.5,1.93h-1.8c.17-2.23,1.91-3.51,4.43-3.51,2.71,0,4.26,1.45,4.26,3.93v4.2c0,.44.25.69.59.69.19,0,.32-.02.53-.1l.15,1.62Zm-3.11-3.72v-.71h-2.27c-1.93,0-2.92.59-2.92,1.72,0,.86.59,1.39,1.97,1.39,2.08,0,3.21-1.45,3.21-2.39Z"></path><path class="cls-1" d="m466.23,71.34v6.49h-1.87v-6.11c0-1.74-.82-2.71-2.35-2.71-1.66,0-2.77,1.09-2.77,2.83v5.98h-1.85v-10.29h1.74l.08,1.53c.65-.94,1.74-1.64,3.3-1.64,2.27,0,3.72,1.39,3.72,3.91Z"></path><path class="cls-1" d="m478.59,62.92v14.91h-1.8l-.04-1.72c-.65,1.05-1.83,1.83-3.51,1.83-2.79,0-4.68-1.99-4.68-5.12s1.93-5.38,4.81-5.38c1.68,0,2.77.69,3.38,1.68v-6.19h1.85Zm-1.85,10.02v-.46c0-1.55-1.01-3.46-3.25-3.46-1.85,0-3.04,1.53-3.04,3.76s1.16,3.59,3,3.59c2.25,0,3.3-1.91,3.3-3.42Z"></path><path class="cls-1" d="m496.53,72.56c0,3.17-1.93,5.38-4.81,5.38-1.68,0-2.77-.69-3.38-1.68l-.04,1.57h-1.8v-14.91h1.85v6.34c.65-1.05,1.83-1.83,3.51-1.83,2.79,0,4.68,1.99,4.68,5.12Zm-1.89.04c0-2.18-1.16-3.59-3-3.59-2.25,0-3.3,1.91-3.3,3.42v.46c0,1.55,1.01,3.46,3.25,3.46,1.85,0,3.04-1.53,3.04-3.76Z"></path><path class="cls-1" d="m507.95,73.17h-7.68c.15,1.95,1.26,3.19,3.06,3.19s2.5-.94,2.69-1.78h1.87c-.4,1.87-1.83,3.36-4.58,3.36-3.21,0-4.96-2.2-4.96-5.23s2.04-5.27,4.91-5.27,4.68,1.95,4.68,5.27v.46Zm-7.64-1.36h5.77c-.23-1.85-1.24-2.79-2.79-2.79s-2.69,1.07-2.98,2.79Z"></path><path class="cls-1" d="m513.43,77.77c-.36.1-.73.17-1.18.17-1.2,0-1.93-.82-1.93-2.02v-13h1.85v12.64c0,.44.27.69.63.69.17,0,.27-.02.48-.1l.15,1.62Z"></path><path class="cls-1" d="m525.09,72.66c0,3.11-2.02,5.27-5.1,5.27s-5.08-2.04-5.08-5.14,2.04-5.35,5.08-5.35,5.1,2.1,5.1,5.23Zm-8.29.06c0,2.16,1.28,3.63,3.19,3.63s3.21-1.47,3.21-3.63-1.26-3.72-3.21-3.72-3.19,1.53-3.19,3.72Z"></path><path class="cls-1" d="m541.43,67.54l-3.15,10.29h-2.18l-2.08-7.22c-.06-.23-.13-.55-.15-.71h-.04c-.02.17-.08.48-.15.71l-2.08,7.22h-2.18l-3.15-10.29h2.08l1.91,7.31c.12.46.27.92.31,1.09h.04c.04-.17.19-.63.32-1.09l1.97-7.31h1.89l1.97,7.31c.13.46.27.92.32,1.09h.04c.04-.17.17-.55.31-1.09l1.91-7.31h2.08Z"></path></g><g><path class="cls-1" d="m389.55,135.51v1.64h-6.91v-1.64h2.77v-10.06c-.71.44-1.43.59-2.77.59v-1.6c1.58,0,2.6-.5,3.25-1.7h1.36v12.77h2.29Z"></path><path class="cls-1" d="m390.79,129.95c0-4.77,2.04-7.37,5.42-7.37s5.4,2.6,5.4,7.37-2.02,7.31-5.4,7.31-5.42-2.54-5.42-7.31Zm8.95,0c0-3.74-1.26-5.73-3.53-5.73s-3.55,1.99-3.55,5.73,1.28,5.67,3.55,5.67,3.53-1.91,3.53-5.67Z"></path><path class="cls-1" d="m404.88,137.49s-.13.02-.27.02c-.8,0-1.28-.55-1.28-1.28,0-.8.57-1.3,1.32-1.3.71,0,1.43.46,1.43,1.85,0,2.04-1.51,3.49-2.75,3.42v-1.05c.76,0,1.55-.82,1.55-1.66Z"></path><path class="cls-1" d="m407.76,129.95c0-4.77,2.04-7.37,5.42-7.37s5.4,2.6,5.4,7.37-2.02,7.31-5.4,7.31-5.42-2.54-5.42-7.31Zm8.94,0c0-3.74-1.26-5.73-3.53-5.73s-3.55,1.99-3.55,5.73,1.28,5.67,3.55,5.67,3.53-1.91,3.53-5.67Z"></path><path class="cls-1" d="m420.71,129.95c0-4.77,2.04-7.37,5.42-7.37s5.4,2.6,5.4,7.37-2.02,7.31-5.4,7.31-5.42-2.54-5.42-7.31Zm8.95,0c0-3.74-1.26-5.73-3.53-5.73s-3.55,1.99-3.55,5.73,1.28,5.67,3.55,5.67,3.53-1.91,3.53-5.67Z"></path><path class="cls-1" d="m440.45,135.51v1.64h-6.91v-1.64h2.77v-10.06c-.71.44-1.43.59-2.77.59v-1.6c1.58,0,2.6-.5,3.25-1.7h1.36v12.77h2.29Z"></path><path class="cls-1" d="m447.03,130.49h6.53v1.39h-6.53v-1.39Z"></path><path class="cls-1" d="m467.59,135.51v1.64h-6.91v-1.64h2.77v-10.06c-.71.44-1.43.59-2.77.59v-1.6c1.57,0,2.6-.5,3.25-1.7h1.37v12.77h2.29Z"></path><path class="cls-1" d="m468.83,129.95c0-4.77,2.04-7.37,5.42-7.37s5.4,2.6,5.4,7.37-2.02,7.31-5.4,7.31-5.42-2.54-5.42-7.31Zm8.94,0c0-3.74-1.26-5.73-3.53-5.73s-3.55,1.99-3.55,5.73,1.28,5.67,3.55,5.67,3.53-1.91,3.53-5.67Z"></path><path class="cls-1" d="m481.78,129.95c0-4.77,2.04-7.37,5.42-7.37s5.4,2.6,5.4,7.37-2.02,7.31-5.4,7.31-5.42-2.54-5.42-7.31Zm8.94,0c0-3.74-1.26-5.73-3.53-5.73s-3.55,1.99-3.55,5.73,1.28,5.67,3.55,5.67,3.53-1.91,3.53-5.67Z"></path><path class="cls-1" d="m495.87,137.49s-.13.02-.27.02c-.8,0-1.28-.55-1.28-1.28,0-.8.57-1.3,1.32-1.3.71,0,1.43.46,1.43,1.85,0,2.04-1.51,3.49-2.75,3.42v-1.05c.76,0,1.55-.82,1.55-1.66Z"></path><path class="cls-1" d="m498.75,129.95c0-4.77,2.04-7.37,5.42-7.37s5.4,2.6,5.4,7.37-2.02,7.31-5.4,7.31-5.42-2.54-5.42-7.31Zm8.94,0c0-3.74-1.26-5.73-3.53-5.73s-3.55,1.99-3.55,5.73,1.28,5.67,3.55,5.67,3.53-1.91,3.53-5.67Z"></path><path class="cls-1" d="m511.71,129.95c0-4.77,2.04-7.37,5.42-7.37s5.4,2.6,5.4,7.37-2.02,7.31-5.4,7.31-5.42-2.54-5.42-7.31Zm8.94,0c0-3.74-1.26-5.73-3.53-5.73s-3.55,1.99-3.55,5.73,1.28,5.67,3.55,5.67,3.53-1.91,3.53-5.67Z"></path><path class="cls-1" d="m524.66,129.95c0-4.77,2.04-7.37,5.42-7.37s5.4,2.6,5.4,7.37-2.02,7.31-5.4,7.31-5.42-2.54-5.42-7.31Zm8.94,0c0-3.74-1.26-5.73-3.53-5.73s-3.55,1.99-3.55,5.73,1.28,5.67,3.55,5.67,3.53-1.91,3.53-5.67Z"></path></g><g><path class="cls-1" d="m377.46,194.83v1.64h-6.91v-1.64h2.77v-10.06c-.71.44-1.43.59-2.77.59v-1.6c1.57,0,2.6-.5,3.25-1.7h1.37v12.77h2.29Z"></path><path class="cls-1" d="m378.7,189.27c0-4.77,2.04-7.37,5.42-7.37s5.4,2.6,5.4,7.37-2.02,7.31-5.4,7.31-5.42-2.54-5.42-7.31Zm8.94,0c0-3.74-1.26-5.73-3.53-5.73s-3.55,1.99-3.55,5.73,1.28,5.67,3.55,5.67,3.53-1.91,3.53-5.67Z"></path><path class="cls-1" d="m391.66,189.27c0-4.77,2.04-7.37,5.42-7.37s5.4,2.6,5.4,7.37-2.02,7.31-5.4,7.31-5.42-2.54-5.42-7.31Zm8.94,0c0-3.74-1.26-5.73-3.53-5.73s-3.55,1.99-3.55,5.73,1.28,5.67,3.55,5.67,3.53-1.91,3.53-5.67Z"></path><path class="cls-1" d="m405.75,196.81s-.13.02-.27.02c-.8,0-1.28-.55-1.28-1.28,0-.8.57-1.3,1.32-1.3.71,0,1.43.46,1.43,1.85,0,2.04-1.51,3.49-2.75,3.42v-1.05c.76,0,1.55-.82,1.55-1.66Z"></path><path class="cls-1" d="m408.62,189.27c0-4.77,2.04-7.37,5.42-7.37s5.4,2.6,5.4,7.37-2.02,7.31-5.4,7.31-5.42-2.54-5.42-7.31Zm8.94,0c0-3.74-1.26-5.73-3.53-5.73s-3.55,1.99-3.55,5.73,1.28,5.67,3.55,5.67,3.53-1.91,3.53-5.67Z"></path><path class="cls-1" d="m421.58,189.27c0-4.77,2.04-7.37,5.42-7.37s5.4,2.6,5.4,7.37-2.02,7.31-5.4,7.31-5.42-2.54-5.42-7.31Zm8.94,0c0-3.74-1.26-5.73-3.53-5.73s-3.55,1.99-3.55,5.73,1.28,5.67,3.55,5.67,3.53-1.91,3.53-5.67Z"></path><path class="cls-1" d="m441.32,194.83v1.64h-6.91v-1.64h2.77v-10.06c-.71.44-1.43.59-2.77.59v-1.6c1.57,0,2.6-.5,3.25-1.7h1.37v12.77h2.29Z"></path><path class="cls-1" d="m447.89,189.82h6.53v1.39h-6.53v-1.39Z"></path><path class="cls-1" d="m471.2,194.83v1.64h-9.49v-1.34l4.96-5.06c1.36-1.39,2.33-2.46,2.31-3.95,0-1.78-1.05-2.58-2.67-2.58s-2.9,1.07-2.9,2.98h-1.85c-.02-2.83,2.1-4.62,4.72-4.62s4.56,1.53,4.56,4.22c.02,1.64-.99,3.19-2.41,4.66l-3.97,4.05h6.74Z"></path><path class="cls-1" d="m482.67,191.9c0,2.9-2.23,4.68-5.04,4.68s-4.87-1.64-4.87-4.39h1.83c.02,1.91,1.45,2.75,3.07,2.75,1.81,0,3.15-1.07,3.15-3.04,0-2.23-1.34-3.11-3-3.11-1.11,0-2.02.4-2.71.92l-1.74-.76.5-6.89h8.1v1.64h-6.42l-.32,4.14c.84-.46,1.76-.69,2.77-.69,2.71,0,4.68,1.68,4.68,4.75Z"></path><path class="cls-1" d="m484.58,189.27c0-4.77,2.04-7.37,5.42-7.37s5.4,2.6,5.4,7.37-2.02,7.31-5.4,7.31-5.42-2.54-5.42-7.31Zm8.94,0c0-3.74-1.26-5.73-3.53-5.73s-3.55,1.99-3.55,5.73,1.28,5.67,3.55,5.67,3.53-1.91,3.53-5.67Z"></path><path class="cls-1" d="m498.67,196.81s-.13.02-.27.02c-.8,0-1.28-.55-1.28-1.28,0-.8.57-1.3,1.32-1.3.71,0,1.43.46,1.43,1.85,0,2.04-1.51,3.49-2.75,3.42v-1.05c.76,0,1.55-.82,1.55-1.66Z"></path><path class="cls-1" d="m501.55,189.27c0-4.77,2.04-7.37,5.42-7.37s5.4,2.6,5.4,7.37-2.02,7.31-5.4,7.31-5.42-2.54-5.42-7.31Zm8.94,0c0-3.74-1.26-5.73-3.53-5.73s-3.55,1.99-3.55,5.73,1.28,5.67,3.55,5.67,3.53-1.91,3.53-5.67Z"></path><path class="cls-1" d="m514.5,189.27c0-4.77,2.04-7.37,5.42-7.37s5.4,2.6,5.4,7.37-2.02,7.31-5.4,7.31-5.42-2.54-5.42-7.31Zm8.94,0c0-3.74-1.26-5.73-3.53-5.73s-3.55,1.99-3.55,5.73,1.28,5.67,3.55,5.67,3.53-1.91,3.53-5.67Z"></path><path class="cls-1" d="m527.46,189.27c0-4.77,2.04-7.37,5.42-7.37s5.4,2.6,5.4,7.37-2.02,7.31-5.4,7.31-5.42-2.54-5.42-7.31Zm8.94,0c0-3.74-1.26-5.73-3.53-5.73s-3.55,1.99-3.55,5.73,1.28,5.67,3.55,5.67,3.53-1.91,3.53-5.67Z"></path></g><g><path class="cls-1" d="m378.21,254.16v1.64h-9.49v-1.34l4.96-5.06c1.36-1.39,2.33-2.46,2.31-3.95,0-1.78-1.05-2.58-2.67-2.58s-2.9,1.07-2.9,2.98h-1.85c-.02-2.83,2.1-4.62,4.72-4.62s4.56,1.53,4.56,4.22c.02,1.64-.99,3.19-2.41,4.66l-3.97,4.05h6.74Z"></path><path class="cls-1" d="m389.68,251.22c0,2.9-2.23,4.68-5.04,4.68s-4.87-1.64-4.87-4.39h1.83c.02,1.91,1.45,2.75,3.07,2.75,1.81,0,3.15-1.07,3.15-3.04,0-2.23-1.34-3.11-3-3.11-1.11,0-2.02.4-2.71.92l-1.74-.76.5-6.89h8.1v1.64h-6.42l-.32,4.14c.84-.46,1.76-.69,2.77-.69,2.71,0,4.68,1.68,4.68,4.75Z"></path><path class="cls-1" d="m391.59,248.59c0-4.77,2.04-7.37,5.42-7.37s5.4,2.6,5.4,7.37-2.02,7.31-5.4,7.31-5.42-2.54-5.42-7.31Zm8.94,0c0-3.74-1.26-5.73-3.53-5.73s-3.55,1.99-3.55,5.73,1.28,5.67,3.55,5.67,3.53-1.91,3.53-5.67Z"></path><path class="cls-1" d="m405.68,256.13s-.13.02-.27.02c-.8,0-1.28-.55-1.28-1.28,0-.8.57-1.3,1.32-1.3.71,0,1.43.46,1.43,1.85,0,2.04-1.51,3.49-2.75,3.42v-1.05c.76,0,1.55-.82,1.55-1.66Z"></path><path class="cls-1" d="m408.56,248.59c0-4.77,2.04-7.37,5.42-7.37s5.4,2.6,5.4,7.37-2.02,7.31-5.4,7.31-5.42-2.54-5.42-7.31Zm8.94,0c0-3.74-1.26-5.73-3.53-5.73s-3.55,1.99-3.55,5.73,1.28,5.67,3.55,5.67,3.53-1.91,3.53-5.67Z"></path><path class="cls-1" d="m421.51,248.59c0-4.77,2.04-7.37,5.42-7.37s5.4,2.6,5.4,7.37-2.02,7.31-5.4,7.31-5.42-2.54-5.42-7.31Zm8.94,0c0-3.74-1.26-5.73-3.53-5.73s-3.55,1.99-3.55,5.73,1.28,5.67,3.55,5.67,3.53-1.91,3.53-5.67Z"></path><path class="cls-1" d="m441.25,254.16v1.64h-6.91v-1.64h2.77v-10.06c-.71.44-1.43.59-2.77.59v-1.6c1.58,0,2.6-.5,3.25-1.7h1.36v12.77h2.29Z"></path><path class="cls-1" d="m447.82,249.14h6.53v1.39h-6.53v-1.39Z"></path><path class="cls-1" d="m471.28,251.22c0,2.9-2.23,4.68-5.04,4.68s-4.87-1.64-4.87-4.39h1.83c.02,1.91,1.45,2.75,3.07,2.75,1.81,0,3.15-1.07,3.15-3.04,0-2.23-1.34-3.11-3-3.11-1.11,0-2.02.4-2.71.92l-1.74-.76.5-6.89h8.1v1.64h-6.42l-.32,4.14c.84-.46,1.76-.69,2.77-.69,2.71,0,4.68,1.68,4.68,4.75Z"></path><path class="cls-1" d="m473.19,248.59c0-4.77,2.04-7.37,5.42-7.37s5.4,2.6,5.4,7.37-2.02,7.31-5.4,7.31-5.42-2.54-5.42-7.31Zm8.94,0c0-3.74-1.26-5.73-3.53-5.73s-3.55,1.99-3.55,5.73,1.28,5.67,3.55,5.67,3.53-1.91,3.53-5.67Z"></path><path class="cls-1" d="m486.15,248.59c0-4.77,2.04-7.37,5.42-7.37s5.4,2.6,5.4,7.37-2.02,7.31-5.4,7.31-5.42-2.54-5.42-7.31Zm8.94,0c0-3.74-1.26-5.73-3.53-5.73s-3.55,1.99-3.55,5.73,1.28,5.67,3.55,5.67,3.53-1.91,3.53-5.67Z"></path><path class="cls-1" d="m500.24,256.13s-.13.02-.27.02c-.8,0-1.28-.55-1.28-1.28,0-.8.57-1.3,1.32-1.3.71,0,1.43.46,1.43,1.85,0,2.04-1.51,3.49-2.75,3.42v-1.05c.76,0,1.55-.82,1.55-1.66Z"></path><path class="cls-1" d="m503.12,248.59c0-4.77,2.04-7.37,5.42-7.37s5.4,2.6,5.4,7.37-2.02,7.31-5.4,7.31-5.42-2.54-5.42-7.31Zm8.94,0c0-3.74-1.26-5.73-3.53-5.73s-3.55,1.99-3.55,5.73,1.28,5.67,3.55,5.67,3.53-1.91,3.53-5.67Z"></path><path class="cls-1" d="m516.07,248.59c0-4.77,2.04-7.37,5.42-7.37s5.4,2.6,5.4,7.37-2.02,7.31-5.4,7.31-5.42-2.54-5.42-7.31Zm8.94,0c0-3.74-1.26-5.73-3.53-5.73s-3.55,1.99-3.55,5.73,1.28,5.67,3.55,5.67,3.53-1.91,3.53-5.67Z"></path><path class="cls-1" d="m529.03,248.59c0-4.77,2.04-7.37,5.42-7.37s5.4,2.6,5.4,7.37-2.02,7.31-5.4,7.31-5.42-2.54-5.42-7.31Zm8.94,0c0-3.74-1.26-5.73-3.53-5.73s-3.55,1.99-3.55,5.73,1.28,5.67,3.55,5.67,3.53-1.91,3.53-5.67Z"></path></g><g><path class="cls-1" d="m377.36,310.54c0,2.9-2.23,4.68-5.04,4.68s-4.87-1.64-4.87-4.39h1.83c.02,1.91,1.45,2.75,3.07,2.75,1.81,0,3.15-1.07,3.15-3.04,0-2.23-1.34-3.11-3-3.11-1.11,0-2.02.4-2.71.92l-1.74-.76.5-6.89h8.1v1.64h-6.42l-.31,4.14c.84-.46,1.76-.69,2.77-.69,2.71,0,4.68,1.68,4.68,4.75Z"></path><path class="cls-1" d="m379.27,307.91c0-4.77,2.04-7.37,5.42-7.37s5.4,2.6,5.4,7.37-2.02,7.31-5.4,7.31-5.42-2.54-5.42-7.31Zm8.94,0c0-3.74-1.26-5.73-3.53-5.73s-3.55,1.99-3.55,5.73,1.28,5.67,3.55,5.67,3.53-1.91,3.53-5.67Z"></path><path class="cls-1" d="m392.23,307.91c0-4.77,2.04-7.37,5.42-7.37s5.4,2.6,5.4,7.37-2.02,7.31-5.4,7.31-5.42-2.54-5.42-7.31Zm8.94,0c0-3.74-1.26-5.73-3.53-5.73s-3.55,1.99-3.55,5.73,1.28,5.67,3.55,5.67,3.53-1.91,3.53-5.67Z"></path><path class="cls-1" d="m406.32,315.45s-.13.02-.27.02c-.8,0-1.28-.55-1.28-1.28,0-.8.57-1.3,1.32-1.3.71,0,1.43.46,1.43,1.85,0,2.04-1.51,3.49-2.75,3.42v-1.05c.76,0,1.55-.82,1.55-1.66Z"></path><path class="cls-1" d="m409.19,307.91c0-4.77,2.04-7.37,5.42-7.37s5.4,2.6,5.4,7.37-2.02,7.31-5.4,7.31-5.42-2.54-5.42-7.31Zm8.94,0c0-3.74-1.26-5.73-3.53-5.73s-3.55,1.99-3.55,5.73,1.28,5.67,3.55,5.67,3.53-1.91,3.53-5.67Z"></path><path class="cls-1" d="m422.15,307.91c0-4.77,2.04-7.37,5.42-7.37s5.4,2.6,5.4,7.37-2.02,7.31-5.4,7.31-5.42-2.54-5.42-7.31Zm8.94,0c0-3.74-1.26-5.73-3.53-5.73s-3.55,1.99-3.55,5.73,1.28,5.67,3.55,5.67,3.53-1.91,3.53-5.67Z"></path><path class="cls-1" d="m441.89,313.48v1.64h-6.91v-1.64h2.77v-10.06c-.71.44-1.43.59-2.77.59v-1.6c1.58,0,2.6-.5,3.25-1.7h1.36v12.77h2.29Z"></path><path class="cls-1" d="m458.14,315.05c-.36.1-.73.17-1.18.17-1.07,0-1.78-.67-1.91-1.68-.38.59-1.32,1.68-3.61,1.68s-3.49-1.15-3.49-2.79c0-2.23,2.06-3.15,4.91-3.15h2.16v-.67c0-1.43-.88-2.31-2.54-2.31-1.47,0-2.37.69-2.5,1.93h-1.81c.17-2.23,1.91-3.51,4.43-3.51,2.71,0,4.26,1.45,4.26,3.93v4.2c0,.44.25.69.59.69.19,0,.32-.02.53-.1l.15,1.62Zm-3.11-3.72v-.71h-2.27c-1.93,0-2.92.59-2.92,1.72,0,.86.59,1.39,1.97,1.39,2.08,0,3.21-1.45,3.21-2.39Z"></path><path class="cls-1" d="m468.96,308.63v6.49h-1.87v-6.11c0-1.74-.82-2.71-2.35-2.71-1.66,0-2.77,1.09-2.77,2.83v5.98h-1.85v-10.29h1.74l.08,1.53c.65-.94,1.74-1.64,3.3-1.64,2.27,0,3.72,1.39,3.72,3.91Z"></path><path class="cls-1" d="m481.32,300.21v14.91h-1.81l-.04-1.72c-.65,1.05-1.83,1.83-3.51,1.83-2.79,0-4.68-1.99-4.68-5.12s1.93-5.38,4.81-5.38c1.68,0,2.77.69,3.38,1.68v-6.19h1.85Zm-1.85,10.02v-.46c0-1.55-1.01-3.46-3.25-3.46-1.85,0-3.04,1.53-3.04,3.76s1.16,3.59,3,3.59c2.25,0,3.3-1.91,3.3-3.42Z"></path><path class="cls-1" d="m498.71,315.05c-.36.1-.74.17-1.18.17-1.07,0-1.79-.67-1.91-1.68-.38.59-1.32,1.68-3.61,1.68s-3.49-1.15-3.49-2.79c0-2.23,2.06-3.15,4.91-3.15h2.16v-.67c0-1.43-.88-2.31-2.54-2.31-1.47,0-2.37.69-2.5,1.93h-1.81c.17-2.23,1.91-3.51,4.43-3.51,2.71,0,4.26,1.45,4.26,3.93v4.2c0,.44.25.69.59.69.19,0,.31-.02.52-.1l.15,1.62Zm-3.11-3.72v-.71h-2.27c-1.93,0-2.92.59-2.92,1.72,0,.86.59,1.39,1.97,1.39,2.08,0,3.21-1.45,3.21-2.39Z"></path><path class="cls-1" d="m510.73,309.85c0,3.17-1.93,5.38-4.81,5.38-1.68,0-2.77-.69-3.38-1.68l-.04,1.57h-1.81v-14.91h1.85v6.34c.65-1.05,1.83-1.83,3.51-1.83,2.79,0,4.68,1.99,4.68,5.12Zm-1.89.04c0-2.18-1.16-3.59-3-3.59-2.25,0-3.3,1.91-3.3,3.42v.46c0,1.55,1.01,3.46,3.25,3.46,1.85,0,3.04-1.53,3.04-3.76Z"></path><path class="cls-1" d="m522.74,309.95c0,3.11-2.02,5.27-5.1,5.27s-5.08-2.04-5.08-5.14,2.04-5.35,5.08-5.35,5.1,2.1,5.1,5.23Zm-8.29.06c0,2.16,1.28,3.63,3.19,3.63s3.21-1.47,3.21-3.63-1.26-3.72-3.21-3.72-3.19,1.53-3.19,3.72Z"></path><path class="cls-1" d="m533.64,304.83l-3.95,10.29h-2.02l-4.01-10.29h2.08l2.65,7.31c.15.38.23.67.34,1.09h.04c.08-.42.17-.71.29-1.09l2.69-7.31h1.89Z"></path><path class="cls-1" d="m544.2,310.46h-7.68c.15,1.95,1.26,3.19,3.07,3.19s2.5-.94,2.69-1.78h1.87c-.4,1.87-1.83,3.36-4.58,3.36-3.21,0-4.96-2.2-4.96-5.23s2.04-5.27,4.91-5.27,4.68,1.95,4.68,5.27v.46Zm-7.64-1.36h5.77c-.23-1.85-1.24-2.79-2.79-2.79s-2.69,1.07-2.98,2.79Z"></path></g><g><path class="cls-3" d="m382.85,12.39h-6.36l-1.32,3.65h-1.87l5.31-14.4h2.12l5.31,14.4h-1.87l-1.32-3.65Zm-.61-1.64l-2.56-7.05-2.58,7.05h5.14Z"></path><path class="cls-3" d="m403.34,9.49v6.55h-1.87v-6.17c0-1.72-.88-2.65-2.33-2.65-1.57,0-2.62,1.05-2.62,2.83v5.98h-1.87v-6.17c0-1.72-.88-2.65-2.33-2.65-1.58,0-2.62,1.05-2.62,2.83v5.98h-1.85V5.75h1.74l.08,1.49c.63-.92,1.68-1.6,3.15-1.6,1.66,0,2.83.78,3.38,2.1.57-1.2,1.72-2.1,3.44-2.1,2.29,0,3.7,1.49,3.7,3.84Z"></path><path class="cls-3" d="m415.86,10.88c0,3.11-2.02,5.27-5.1,5.27s-5.08-2.04-5.08-5.14,2.04-5.35,5.08-5.35,5.1,2.1,5.1,5.23Zm-8.29.06c0,2.16,1.28,3.63,3.19,3.63s3.21-1.47,3.21-3.63-1.26-3.72-3.21-3.72-3.19,1.53-3.19,3.72Z"></path><path class="cls-3" d="m426.82,5.75v10.29h-1.74l-.08-1.51c-.63.94-1.7,1.62-3.17,1.62-2.25,0-3.63-1.43-3.63-3.67v-6.72h1.87v6.45c0,1.51.82,2.37,2.31,2.37s2.6-1.05,2.6-2.83v-5.98h1.85Z"></path><path class="cls-3" d="m438.73,9.55v6.49h-1.87v-6.11c0-1.74-.82-2.71-2.35-2.71-1.66,0-2.77,1.09-2.77,2.83v5.98h-1.85V5.75h1.74l.08,1.53c.65-.94,1.74-1.64,3.3-1.64,2.27,0,3.72,1.39,3.72,3.91Z"></path><path class="cls-3" d="m447.49,15.89c-.34.15-.97.25-1.62.25-2.39,0-3.82-1.34-3.82-3.49v-5.31h-1.55v-1.6h1.66v-3.07h1.74v3.07h3.34v1.55h-3.34v5.35c0,1.03.48,1.87,2.16,1.87.46,0,.9-.06,1.34-.25l.08,1.62Z"></path><path class="cls-3" d="m456.35,0h1.83c-.78,1.03-2.58,4.26-2.58,9.51s1.83,8.5,2.58,9.51h-1.83c-1.22-1.6-2.67-4.85-2.67-9.51s1.43-7.89,2.67-9.51Z"></path><path class="cls-3" d="m461.24,3.65c-.71,0-1.28-.52-1.28-1.26s.57-1.26,1.28-1.26,1.28.55,1.28,1.26-.57,1.26-1.28,1.26Zm-.99,2.1h1.87v10.29h-1.87V5.75Z"></path><path class="cls-3" d="m474.03,9.55v6.49h-1.87v-6.11c0-1.74-.82-2.71-2.35-2.71-1.66,0-2.77,1.09-2.77,2.83v5.98h-1.85V5.75h1.74l.08,1.53c.65-.94,1.74-1.64,3.3-1.64,2.27,0,3.72,1.39,3.72,3.91Z"></path><path class="cls-3" d="m492.32,5.82c0,2.71-1.97,4.26-4.66,4.26h-3.61v5.96h-1.85V1.64h5.46c2.69,0,4.66,1.47,4.66,4.18Zm-1.87.04c0-1.45-.95-2.6-2.79-2.6h-3.61v5.21h3.61c1.85,0,2.79-1.15,2.79-2.6Z"></path><path class="cls-3" d="m504.52,14.4v1.64h-9.68V1.64h9.57v1.66h-7.73v4.43h7.05v1.66h-7.05v5.02h7.83Z"></path><path class="cls-3" d="m517.18,12.28c0,2.33-2.14,3.88-5.31,3.88-3.38,0-5.42-1.53-5.42-4.26h1.83c0,1.64,1.3,2.62,3.74,2.62,2.06,0,3.32-.82,3.3-2.25,0-4.07-8.48-1.11-8.48-6.89,0-2.37,2.06-3.88,5.14-3.88s5.04,1.53,5.02,4.16h-1.83c0-1.74-1.28-2.52-3.25-2.52-2.23,0-3.21.8-3.21,2.2,0,3.88,8.48.99,8.48,6.93Z"></path><path class="cls-3" d="m519.18,8.9c0-4.56,3.07-7.39,6.97-7.39s6.97,2.71,6.97,7.26-3.07,7.39-6.97,7.39-6.97-2.71-6.97-7.26Zm12.07-.06c0-3.55-2.29-5.69-5.1-5.69s-5.1,2.14-5.1,5.69,2.29,5.69,5.1,5.69,5.1-2.12,5.1-5.69Z"></path><path class="cls-3" d="m545.74,12.28c0,2.33-2.14,3.88-5.31,3.88-3.38,0-5.42-1.53-5.42-4.26h1.83c0,1.64,1.3,2.62,3.74,2.62,2.06,0,3.32-.82,3.3-2.25,0-4.07-8.48-1.11-8.48-6.89,0-2.37,2.06-3.88,5.14-3.88s5.04,1.53,5.02,4.16h-1.83c0-1.74-1.28-2.52-3.25-2.52-2.23,0-3.21.8-3.21,2.2,0,3.88,8.48.99,8.48,6.93Z"></path><path class="cls-3" d="m548.64,19.02h-1.83c.76-1.01,2.58-4.24,2.58-9.51s-1.81-8.48-2.58-9.51h1.83c1.24,1.62,2.67,4.87,2.67,9.51s-1.45,7.92-2.67,9.51Z"></path></g><g><path class="cls-3" d="m733.36,1.64h1.85v14.4h-1.85V1.64Z"></path><path class="cls-3" d="m747.49,9.55v6.49h-1.87v-6.11c0-1.74-.82-2.71-2.35-2.71-1.66,0-2.77,1.09-2.77,2.83v5.98h-1.85V5.75h1.74l.08,1.53c.65-.94,1.74-1.64,3.3-1.64,2.27,0,3.72,1.39,3.72,3.91Z"></path><path class="cls-3" d="m756.25,15.89c-.34.15-.97.25-1.62.25-2.39,0-3.82-1.34-3.82-3.49v-5.31h-1.55v-1.6h1.66v-3.07h1.74v3.07h3.34v1.55h-3.34v5.35c0,1.03.48,1.87,2.16,1.87.46,0,.9-.06,1.34-.25l.08,1.62Z"></path><path class="cls-3" d="m766.92,11.38h-7.68c.15,1.95,1.26,3.19,3.07,3.19s2.5-.94,2.69-1.78h1.87c-.4,1.87-1.83,3.36-4.58,3.36-3.21,0-4.96-2.2-4.96-5.23s2.04-5.27,4.91-5.27,4.68,1.95,4.68,5.27v.46Zm-7.64-1.36h5.77c-.23-1.85-1.24-2.79-2.79-2.79s-2.69,1.07-2.98,2.79Z"></path><path class="cls-3" d="m774.44,5.71l-.02,1.83c-.08-.04-.27-.08-.69-.08-1.3,0-2.52,1.09-2.52,3.17v5.42h-1.85V5.75h1.74l.04,1.66c.5-1.01,1.36-1.76,2.71-1.76.27,0,.46.04.59.06Z"></path><path class="cls-3" d="m784.98,11.38h-7.68c.15,1.95,1.26,3.19,3.07,3.19s2.5-.94,2.69-1.78h1.87c-.4,1.87-1.83,3.36-4.58,3.36-3.21,0-4.96-2.2-4.96-5.23s2.04-5.27,4.91-5.27,4.68,1.95,4.68,5.27v.46Zm-7.64-1.36h5.77c-.23-1.85-1.24-2.79-2.79-2.79s-2.69,1.07-2.98,2.79Z"></path><path class="cls-3" d="m794.91,13.25c0,1.7-1.47,2.9-4.12,2.9-2.83,0-4.05-1.13-4.09-3.13l1.7.02c.11.99.74,1.53,2.42,1.53s2.27-.55,2.27-1.32c0-2.39-6.11-.69-6.11-4.7,0-1.7,1.45-2.9,3.95-2.9s3.76,1.13,3.84,3.13l-1.72-.02c-.08-1.01-.86-1.53-2.16-1.53-1.41,0-2.08.5-2.08,1.32,0,2.35,6.11.57,6.11,4.7Z"></path><path class="cls-3" d="m803.12,15.89c-.34.15-.97.25-1.62.25-2.39,0-3.82-1.34-3.82-3.49v-5.31h-1.55v-1.6h1.66v-3.07h1.74v3.07h3.34v1.55h-3.34v5.35c0,1.03.48,1.87,2.16,1.87.46,0,.9-.06,1.34-.25l.08,1.62Z"></path><path class="cls-3" d="m821.35,15.98c-.36.1-.73.17-1.18.17-1.83,0-2.58-.94-3.34-2.33l-1.91-3.57h-2.88v5.79h-1.85V1.64h5.27c2.69,0,4.68,1.51,4.68,4.35,0,2.2-1.24,3.57-3.07,4.05l1.76,3.42c.46.86,1.01,1.01,1.51,1.01.36,0,.63-.02.84-.1l.15,1.62Zm-5.88-7.26c1.87,0,2.81-1.15,2.81-2.73s-.94-2.73-2.81-2.73h-3.42v5.46h3.42Z"></path><path class="cls-3" d="m832.79,15.98c-.36.1-.73.17-1.18.17-1.07,0-1.78-.67-1.91-1.68-.38.59-1.32,1.68-3.61,1.68s-3.49-1.15-3.49-2.79c0-2.23,2.06-3.15,4.91-3.15h2.16v-.67c0-1.43-.88-2.31-2.54-2.31-1.47,0-2.37.69-2.5,1.93h-1.81c.17-2.23,1.91-3.51,4.43-3.51,2.71,0,4.26,1.45,4.26,3.93v4.2c0,.44.25.69.59.69.19,0,.32-.02.53-.1l.15,1.62Zm-3.11-3.72v-.71h-2.27c-1.93,0-2.92.59-2.92,1.72,0,.86.59,1.39,1.97,1.39,2.08,0,3.21-1.45,3.21-2.39Z"></path><path class="cls-3" d="m840.5,15.89c-.34.15-.97.25-1.62.25-2.39,0-3.82-1.34-3.82-3.49v-5.31h-1.55v-1.6h1.66v-3.07h1.74v3.07h3.34v1.55h-3.34v5.35c0,1.03.48,1.87,2.16,1.87.46,0,.9-.06,1.34-.25l.08,1.62Z"></path><path class="cls-3" d="m851.17,11.38h-7.68c.15,1.95,1.26,3.19,3.07,3.19s2.5-.94,2.69-1.78h1.87c-.4,1.87-1.83,3.36-4.58,3.36-3.21,0-4.96-2.2-4.96-5.23s2.04-5.27,4.91-5.27,4.68,1.95,4.68,5.27v.46Zm-7.64-1.36h5.77c-.23-1.85-1.24-2.79-2.79-2.79s-2.69,1.07-2.98,2.79Z"></path></g><rect class="cls-2" x="332.4" y="96.83" width="248.79" height="1"></rect><rect class="cls-2" x="332.4" y="156.52" width="248.79" height="1"></rect><rect class="cls-2" x="332.4" y="216.2" width="248.79" height="1"></rect><rect class="cls-2" x="332.4" y="275.88" width="248.79" height="1"></rect><g><path class="cls-1" d="m766.95,77.22h-1.87v3.61h-1.85v-3.61h-7.12v-1.64l6.32-9.15h2.65v9.15h1.87v1.64Zm-8.84-1.64h5.12v-7.33h-.02l-5.1,7.31v.02Z"></path><path class="cls-1" d="m771.32,79.67c0,.76-.53,1.26-1.3,1.26s-1.3-.5-1.3-1.26.52-1.28,1.3-1.28,1.3.52,1.3,1.28Z"></path><path class="cls-1" d="m773,73.63c0-4.77,2.04-7.37,5.42-7.37s5.4,2.6,5.4,7.37-2.02,7.31-5.4,7.31-5.42-2.54-5.42-7.31Zm8.94,0c0-3.74-1.26-5.73-3.53-5.73s-3.55,1.99-3.55,5.73,1.28,5.67,3.55,5.67,3.53-1.91,3.53-5.67Z"></path><path class="cls-1" d="m785.96,73.63c0-4.77,2.04-7.37,5.42-7.37s5.4,2.6,5.4,7.37-2.02,7.31-5.4,7.31-5.42-2.54-5.42-7.31Zm8.94,0c0-3.74-1.26-5.73-3.53-5.73s-3.55,1.99-3.55,5.73,1.28,5.67,3.55,5.67,3.53-1.91,3.53-5.67Z"></path><path class="cls-1" d="m798.48,70.37c0-2.6,1.26-4.05,3.34-4.05s3.34,1.45,3.34,4.05-1.26,4.05-3.34,4.05-3.34-1.45-3.34-4.05Zm4.79,0c0-1.66-.53-2.44-1.45-2.44s-1.45.78-1.45,2.44.52,2.44,1.45,2.44,1.45-.78,1.45-2.44Zm5.63-4.07h1.76l-6.19,14.53h-1.78l6.21-14.53Zm-.71,10.58c0-2.6,1.26-4.05,3.34-4.05s3.32,1.45,3.32,4.05-1.24,4.05-3.32,4.05-3.34-1.45-3.34-4.05Zm4.79,0c0-1.66-.53-2.44-1.45-2.44s-1.47.78-1.47,2.44.53,2.44,1.47,2.44,1.45-.78,1.45-2.44Z"></path></g><g><path class="cls-1" d="m766.95,135.28h-1.87v3.61h-1.85v-3.61h-7.12v-1.64l6.32-9.15h2.65v9.15h1.87v1.64Zm-8.84-1.64h5.12v-7.33h-.02l-5.1,7.31v.02Z"></path><path class="cls-1" d="m771.32,137.74c0,.76-.53,1.26-1.3,1.26s-1.3-.5-1.3-1.26.52-1.28,1.3-1.28,1.3.52,1.3,1.28Z"></path><path class="cls-1" d="m783.1,134.31c0,2.9-2.23,4.68-5.04,4.68s-4.87-1.64-4.87-4.39h1.83c.02,1.91,1.45,2.75,3.07,2.75,1.81,0,3.15-1.07,3.15-3.04,0-2.23-1.34-3.11-3-3.11-1.11,0-2.02.4-2.71.92l-1.74-.76.5-6.89h8.1v1.64h-6.42l-.32,4.14c.84-.46,1.76-.69,2.77-.69,2.71,0,4.68,1.68,4.68,4.75Z"></path><path class="cls-1" d="m785.01,131.69c0-4.77,2.04-7.37,5.42-7.37s5.4,2.6,5.4,7.37-2.02,7.31-5.4,7.31-5.42-2.54-5.42-7.31Zm8.94,0c0-3.74-1.26-5.73-3.53-5.73s-3.55,1.99-3.55,5.73,1.28,5.67,3.55,5.67,3.53-1.91,3.53-5.67Z"></path><path class="cls-1" d="m797.53,128.43c0-2.6,1.26-4.05,3.34-4.05s3.34,1.45,3.34,4.05-1.26,4.05-3.34,4.05-3.34-1.45-3.34-4.05Zm4.79,0c0-1.66-.52-2.44-1.45-2.44s-1.45.78-1.45,2.44.53,2.44,1.45,2.44,1.45-.78,1.45-2.44Zm5.63-4.07h1.76l-6.19,14.53h-1.79l6.21-14.53Zm-.71,10.58c0-2.6,1.26-4.05,3.34-4.05s3.32,1.45,3.32,4.05-1.24,4.05-3.32,4.05-3.34-1.45-3.34-4.05Zm4.79,0c0-1.66-.52-2.44-1.45-2.44s-1.47.78-1.47,2.44.52,2.44,1.47,2.44,1.45-.78,1.45-2.44Z"></path></g><g><path class="cls-1" d="m766.87,192.38c0,2.9-2.23,4.68-5.04,4.68s-4.87-1.64-4.87-4.39h1.83c.02,1.91,1.45,2.75,3.07,2.75,1.81,0,3.15-1.07,3.15-3.04,0-2.23-1.34-3.11-3-3.11-1.11,0-2.02.4-2.71.92l-1.74-.76.5-6.89h8.1v1.64h-6.42l-.31,4.14c.84-.46,1.76-.69,2.77-.69,2.71,0,4.68,1.68,4.68,4.75Z"></path><path class="cls-1" d="m771.32,195.8c0,.76-.52,1.26-1.3,1.26s-1.3-.5-1.3-1.26.53-1.28,1.3-1.28,1.3.52,1.3,1.28Z"></path><path class="cls-1" d="m773,189.75c0-4.77,2.04-7.37,5.42-7.37s5.4,2.6,5.4,7.37-2.02,7.31-5.4,7.31-5.42-2.54-5.42-7.31Zm8.94,0c0-3.74-1.26-5.73-3.53-5.73s-3.55,1.99-3.55,5.73,1.28,5.67,3.55,5.67,3.53-1.91,3.53-5.67Z"></path><path class="cls-1" d="m785.96,189.75c0-4.77,2.04-7.37,5.42-7.37s5.4,2.6,5.4,7.37-2.02,7.31-5.4,7.31-5.42-2.54-5.42-7.31Zm8.94,0c0-3.74-1.26-5.73-3.53-5.73s-3.55,1.99-3.55,5.73,1.28,5.67,3.55,5.67,3.53-1.91,3.53-5.67Z"></path><path class="cls-1" d="m798.47,186.5c0-2.6,1.26-4.05,3.34-4.05s3.34,1.45,3.34,4.05-1.26,4.05-3.34,4.05-3.34-1.45-3.34-4.05Zm4.79,0c0-1.66-.52-2.44-1.45-2.44s-1.45.78-1.45,2.44.53,2.44,1.45,2.44,1.45-.78,1.45-2.44Zm5.63-4.07h1.76l-6.19,14.53h-1.79l6.21-14.53Zm-.71,10.58c0-2.6,1.26-4.05,3.34-4.05s3.32,1.45,3.32,4.05-1.24,4.05-3.32,4.05-3.34-1.45-3.34-4.05Zm4.79,0c0-1.66-.52-2.44-1.45-2.44s-1.47.78-1.47,2.44.52,2.44,1.47,2.44,1.45-.78,1.45-2.44Z"></path></g><g><path class="cls-1" d="m766.87,250.44c0,2.9-2.23,4.68-5.04,4.68s-4.87-1.64-4.87-4.39h1.83c.02,1.91,1.45,2.75,3.07,2.75,1.81,0,3.15-1.07,3.15-3.04,0-2.23-1.34-3.11-3-3.11-1.11,0-2.02.4-2.71.92l-1.74-.76.5-6.89h8.1v1.64h-6.42l-.31,4.14c.84-.46,1.76-.69,2.77-.69,2.71,0,4.68,1.68,4.68,4.75Z"></path><path class="cls-1" d="m771.32,253.86c0,.76-.52,1.26-1.3,1.26s-1.3-.5-1.3-1.26.53-1.28,1.3-1.28,1.3.52,1.3,1.28Z"></path><path class="cls-1" d="m783.1,250.44c0,2.9-2.23,4.68-5.04,4.68s-4.87-1.64-4.87-4.39h1.83c.02,1.91,1.45,2.75,3.07,2.75,1.81,0,3.15-1.07,3.15-3.04,0-2.23-1.34-3.11-3-3.11-1.11,0-2.02.4-2.71.92l-1.74-.76.5-6.89h8.1v1.64h-6.42l-.31,4.14c.84-.46,1.76-.69,2.77-.69,2.71,0,4.68,1.68,4.68,4.75Z"></path><path class="cls-1" d="m785.01,247.81c0-4.77,2.04-7.37,5.42-7.37s5.4,2.6,5.4,7.37-2.02,7.31-5.4,7.31-5.42-2.54-5.42-7.31Zm8.94,0c0-3.74-1.26-5.73-3.53-5.73s-3.55,1.99-3.55,5.73,1.28,5.67,3.55,5.67,3.53-1.91,3.53-5.67Z"></path><path class="cls-1" d="m797.53,244.56c0-2.6,1.26-4.05,3.34-4.05s3.34,1.45,3.34,4.05-1.26,4.05-3.34,4.05-3.34-1.45-3.34-4.05Zm4.79,0c0-1.66-.53-2.44-1.45-2.44s-1.45.78-1.45,2.44.52,2.44,1.45,2.44,1.45-.78,1.45-2.44Zm5.63-4.07h1.76l-6.19,14.53h-1.78l6.21-14.53Zm-.71,10.58c0-2.6,1.26-4.05,3.34-4.05s3.32,1.45,3.32,4.05-1.24,4.05-3.32,4.05-3.34-1.45-3.34-4.05Zm4.79,0c0-1.66-.53-2.44-1.45-2.44s-1.47.78-1.47,2.44.53,2.44,1.47,2.44,1.45-.78,1.45-2.44Z"></path></g><g><path class="cls-1" d="m766.85,308.56c0,2.75-2.02,4.62-4.81,4.62-3.3,0-5.29-2.41-5.29-7.29s2.02-7.35,5.33-7.35c2.65,0,4.54,1.64,4.51,3.97h-1.83c-.02-1.62-1.22-2.33-2.62-2.33-2.29,0-3.63,1.89-3.63,5.69v.08c.76-1.15,2.08-1.95,3.59-1.95,2.69,0,4.75,1.78,4.75,4.56Zm-1.87-.02c0-1.81-1.16-2.9-2.88-2.9-1.89,0-3.97,1.34-2.98,4.12.55,1.24,1.51,1.78,2.92,1.78,1.66,0,2.94-1.11,2.94-3Z"></path><path class="cls-1" d="m771.43,311.92c0,.76-.52,1.26-1.3,1.26s-1.3-.5-1.3-1.26.53-1.28,1.3-1.28,1.3.52,1.3,1.28Z"></path><path class="cls-1" d="m773.11,305.88c0-4.77,2.04-7.37,5.42-7.37s5.4,2.6,5.4,7.37-2.02,7.31-5.4,7.31-5.42-2.54-5.42-7.31Zm8.94,0c0-3.74-1.26-5.73-3.53-5.73s-3.55,1.99-3.55,5.73,1.28,5.67,3.55,5.67,3.53-1.91,3.53-5.67Z"></path><path class="cls-1" d="m786.06,305.88c0-4.77,2.04-7.37,5.42-7.37s5.4,2.6,5.4,7.37-2.02,7.31-5.4,7.31-5.42-2.54-5.42-7.31Zm8.94,0c0-3.74-1.26-5.73-3.53-5.73s-3.55,1.99-3.55,5.73,1.28,5.67,3.55,5.67,3.53-1.91,3.53-5.67Z"></path><path class="cls-1" d="m798.58,302.62c0-2.6,1.26-4.05,3.34-4.05s3.34,1.45,3.34,4.05-1.26,4.05-3.34,4.05-3.34-1.45-3.34-4.05Zm4.79,0c0-1.66-.52-2.44-1.45-2.44s-1.45.78-1.45,2.44.53,2.44,1.45,2.44,1.45-.78,1.45-2.44Zm5.63-4.07h1.76l-6.19,14.53h-1.79l6.21-14.53Zm-.71,10.58c0-2.6,1.26-4.05,3.34-4.05s3.32,1.45,3.32,4.05-1.24,4.05-3.32,4.05-3.34-1.45-3.34-4.05Zm4.79,0c0-1.66-.52-2.44-1.45-2.44s-1.47.78-1.47,2.44.52,2.44,1.47,2.44,1.45-.78,1.45-2.44Z"></path></g><rect class="cls-2" x="719.4" y="95.83" width="131.77" height="1"></rect><rect class="cls-2" x="719.4" y="155.93" width="131.77" height="1"></rect><rect class="cls-2" x="719.4" y="216.02" width="131.77" height="1"></rect><rect class="cls-2" x="719.4" y="276.12" width="131.77" height="1"></rect></g></g></svg>