<svg xmlns="http://www.w3.org/2000/svg" id="Layer_2" data-name="Layer 2" viewBox="0 0 493.62 150.61"><defs><style>      .cls-1 {        fill: #3f74ba;      }      .cls-2 {        fill: #b5ccdb;      }      .cls-3 {        fill: #7f9dbb;      }      .cls-4 {        fill: #2a4485;      }    </style></defs><g id="Layer_1-2" data-name="Layer 1"><g><g><path class="cls-1" d="m12.64,73.19c0,2.71-1.97,4.26-4.66,4.26h-3.61v5.96h-1.85v-14.4h5.46c2.69,0,4.66,1.47,4.66,4.18Zm-1.87.04c0-1.45-.94-2.6-2.79-2.6h-3.61v5.21h3.61c1.85,0,2.79-1.15,2.79-2.6Z"></path><path class="cls-1" d="m23.63,76.72v6.7h-1.87v-6.3c0-1.57-.84-2.52-2.31-2.52-1.68,0-2.79,1.07-2.79,2.83v5.98h-1.87v-14.91h1.83v6.13c.65-.94,1.72-1.62,3.3-1.62,2.29,0,3.72,1.47,3.72,3.7Z"></path><path class="cls-1" d="m36.63,78.15c0,3.17-1.93,5.38-4.81,5.38-1.68,0-2.77-.69-3.38-1.68v5.77h-1.85v-14.49h1.81l.04,1.72c.65-1.05,1.83-1.83,3.51-1.83,2.79,0,4.68,1.99,4.68,5.12Zm-1.89.04c0-2.18-1.16-3.59-3-3.59-2.25,0-3.3,1.91-3.3,3.42v.46c0,1.55,1.01,3.46,3.25,3.46,1.85,0,3.04-1.53,3.04-3.76Z"></path><path class="cls-1" d="m52.98,81.78v1.64h-9.49v-1.34l4.96-5.06c1.37-1.39,2.33-2.46,2.31-3.95,0-1.78-1.05-2.58-2.67-2.58s-2.9,1.07-2.9,2.98h-1.85c-.02-2.83,2.1-4.62,4.72-4.62s4.56,1.53,4.56,4.22c.02,1.64-.99,3.19-2.42,4.66l-3.97,4.05h6.74Z"></path><path class="cls-1" d="m64.45,78.84c0,2.9-2.23,4.68-5.04,4.68s-4.87-1.64-4.87-4.39h1.83c.02,1.91,1.45,2.75,3.07,2.75,1.81,0,3.15-1.07,3.15-3.04,0-2.23-1.34-3.11-3-3.11-1.11,0-2.02.4-2.71.92l-1.74-.76.5-6.89h8.1v1.64h-6.42l-.31,4.14c.84-.46,1.76-.69,2.77-.69,2.71,0,4.68,1.68,4.68,4.75Z"></path><path class="cls-1" d="m67.92,83.75s-.13.02-.27.02c-.8,0-1.28-.55-1.28-1.28,0-.8.57-1.3,1.32-1.3.71,0,1.43.46,1.43,1.85,0,2.04-1.51,3.49-2.75,3.42v-1.05c.76,0,1.55-.82,1.55-1.66Z"></path><path class="cls-1" d="m70.79,76.22c0-4.77,2.04-7.37,5.42-7.37s5.4,2.6,5.4,7.37-2.02,7.31-5.4,7.31-5.42-2.54-5.42-7.31Zm8.94,0c0-3.74-1.26-5.73-3.53-5.73s-3.55,1.99-3.55,5.73,1.28,5.67,3.55,5.67,3.53-1.91,3.53-5.67Z"></path><path class="cls-1" d="m83.75,76.22c0-4.77,2.04-7.37,5.42-7.37s5.4,2.6,5.4,7.37-2.02,7.31-5.4,7.31-5.42-2.54-5.42-7.31Zm8.94,0c0-3.74-1.26-5.73-3.53-5.73s-3.55,1.99-3.55,5.73,1.28,5.67,3.55,5.67,3.53-1.91,3.53-5.67Z"></path><path class="cls-1" d="m96.71,76.22c0-4.77,2.04-7.37,5.42-7.37s5.4,2.6,5.4,7.37-2.02,7.31-5.4,7.31-5.42-2.54-5.42-7.31Zm8.94,0c0-3.74-1.26-5.73-3.53-5.73s-3.55,1.99-3.55,5.73,1.28,5.67,3.55,5.67,3.53-1.91,3.53-5.67Z"></path><path class="cls-1" d="m119.97,68.6h1.85l-6.05,15.24h-1.89l6.09-15.24Z"></path><path class="cls-1" d="m137.47,76.72v6.7h-1.87v-6.3c0-1.57-.84-2.52-2.31-2.52-1.68,0-2.79,1.07-2.79,2.83v5.98h-1.87v-14.91h1.83v6.13c.65-.94,1.72-1.62,3.3-1.62,2.29,0,3.72,1.47,3.72,3.7Z"></path><path class="cls-1" d="m149.39,78.76h-7.68c.15,1.95,1.26,3.19,3.07,3.19s2.5-.94,2.69-1.78h1.87c-.4,1.87-1.83,3.36-4.58,3.36-3.21,0-4.96-2.2-4.96-5.23s2.04-5.27,4.91-5.27,4.68,1.95,4.68,5.27v.46Zm-7.64-1.36h5.77c-.23-1.85-1.24-2.79-2.79-2.79s-2.69,1.07-2.98,2.79Z"></path><path class="cls-1" d="m151.2,78.32c0-3.09,1.99-5.29,4.91-5.29,2.69,0,4.26,1.51,4.54,3.86h-1.97c-.21-1.28-.99-2.29-2.54-2.29-1.85,0-3.04,1.45-3.04,3.67s1.09,3.67,3,3.67c1.6,0,2.37-1.01,2.58-2.23h1.97c-.31,2.29-1.91,3.8-4.64,3.8-3.13,0-4.81-2.18-4.81-5.21Z"></path><path class="cls-1" d="m168.78,83.27c-.34.15-.97.25-1.62.25-2.39,0-3.82-1.34-3.82-3.49v-5.31h-1.55v-1.6h1.66v-3.07h1.74v3.07h3.34v1.55h-3.34v5.35c0,1.03.48,1.87,2.16,1.87.46,0,.9-.06,1.34-.25l.08,1.62Z"></path><path class="cls-1" d="m180.14,83.36c-.36.1-.73.17-1.18.17-1.07,0-1.78-.67-1.91-1.68-.38.59-1.32,1.68-3.61,1.68s-3.49-1.15-3.49-2.79c0-2.23,2.06-3.15,4.91-3.15h2.16v-.67c0-1.43-.88-2.31-2.54-2.31-1.47,0-2.37.69-2.5,1.93h-1.8c.17-2.23,1.91-3.51,4.43-3.51,2.71,0,4.26,1.45,4.26,3.93v4.2c0,.44.25.69.59.69.19,0,.32-.02.53-.1l.15,1.62Zm-3.11-3.72v-.71h-2.27c-1.93,0-2.92.59-2.92,1.72,0,.86.59,1.39,1.97,1.39,2.08,0,3.21-1.45,3.21-2.39Z"></path><path class="cls-1" d="m187.19,73.09l-.02,1.83c-.08-.04-.27-.08-.69-.08-1.3,0-2.52,1.09-2.52,3.17v5.42h-1.85v-10.29h1.74l.04,1.66c.5-1.01,1.36-1.76,2.71-1.76.27,0,.46.04.59.06Z"></path><path class="cls-1" d="m197.74,78.76h-7.68c.15,1.95,1.26,3.19,3.07,3.19s2.5-.94,2.69-1.78h1.87c-.4,1.87-1.83,3.36-4.58,3.36-3.21,0-4.96-2.2-4.96-5.23s2.04-5.27,4.91-5.27,4.68,1.95,4.68,5.27v.46Zm-7.64-1.36h5.77c-.23-1.85-1.24-2.79-2.79-2.79s-2.69,1.07-2.98,2.79Z"></path></g><g><path class="cls-3" d="m8.91,119.23v1.48H.34v-13.03h1.67v11.55h6.9Z"></path><path class="cls-3" d="m11.4,109.51c-.65,0-1.16-.47-1.16-1.14s.51-1.14,1.16-1.14,1.16.49,1.16,1.14-.51,1.14-1.16,1.14Zm-.89,1.9h1.69v9.31h-1.69v-9.31Z"></path><path class="cls-3" d="m28.99,114.79v5.93h-1.69v-5.58c0-1.56-.8-2.39-2.11-2.39-1.42,0-2.38.95-2.38,2.56v5.41h-1.69v-5.58c0-1.56-.8-2.39-2.11-2.39-1.42,0-2.38.95-2.38,2.56v5.41h-1.67v-9.31h1.58l.08,1.35c.57-.84,1.52-1.44,2.85-1.44,1.5,0,2.56.7,3.06,1.9.51-1.08,1.56-1.9,3.12-1.9,2.07,0,3.34,1.35,3.34,3.48Z"></path><path class="cls-3" d="m32.57,109.51c-.65,0-1.16-.47-1.16-1.14s.51-1.14,1.16-1.14,1.16.49,1.16,1.14-.51,1.14-1.16,1.14Zm-.89,1.9h1.69v9.31h-1.69v-9.31Z"></path><path class="cls-3" d="m41.5,120.58c-.3.13-.87.23-1.46.23-2.17,0-3.46-1.22-3.46-3.15v-4.81h-1.41v-1.44h1.5v-2.77h1.58v2.77h3.02v1.41h-3.02v4.84c0,.93.44,1.69,1.96,1.69.42,0,.82-.06,1.22-.23l.08,1.46Z"></path><path class="cls-3" d="m51.15,116.5h-6.95c.13,1.77,1.14,2.89,2.77,2.89s2.26-.85,2.43-1.61h1.69c-.36,1.69-1.65,3.04-4.14,3.04-2.91,0-4.48-2-4.48-4.73s1.84-4.77,4.45-4.77,4.24,1.77,4.24,4.77v.42Zm-6.92-1.23h5.22c-.21-1.67-1.12-2.53-2.53-2.53s-2.43.97-2.7,2.53Z"></path><path class="cls-3" d="m61.86,107.23v13.49h-1.63l-.04-1.56c-.59.95-1.65,1.65-3.17,1.65-2.53,0-4.24-1.81-4.24-4.64s1.75-4.86,4.35-4.86c1.52,0,2.51.63,3.06,1.52v-5.6h1.67Zm-1.67,9.06v-.42c0-1.41-.91-3.13-2.94-3.13-1.67,0-2.75,1.39-2.75,3.4s1.04,3.25,2.72,3.25c2.03,0,2.98-1.73,2.98-3.1Z"></path><path class="cls-3" d="m74.37,120.58c-.3.13-.87.23-1.46.23-2.17,0-3.46-1.22-3.46-3.15v-4.81h-1.41v-1.44h1.5v-2.77h1.58v2.77h3.02v1.41h-3.02v4.84c0,.93.44,1.69,1.96,1.69.42,0,.82-.06,1.22-.23l.08,1.46Z"></path><path class="cls-3" d="m84.55,116.04c0,2.81-1.82,4.77-4.62,4.77s-4.6-1.84-4.6-4.65,1.84-4.84,4.6-4.84,4.62,1.9,4.62,4.73Zm-7.5.06c0,1.96,1.16,3.29,2.89,3.29s2.91-1.33,2.91-3.29-1.14-3.36-2.91-3.36-2.89,1.39-2.89,3.36Z"></path><path class="cls-3" d="m93.14,109.11v4.48h5.87v1.44h-5.87v5.68h-1.67v-13.03h8.38v1.42h-6.71Z"></path><path class="cls-3" d="m101.06,114.26c0-4.12,2.77-6.69,6.31-6.69s6.31,2.45,6.31,6.57-2.77,6.69-6.31,6.69-6.31-2.45-6.31-6.57Zm10.92-.06c0-3.21-2.07-5.15-4.62-5.15s-4.62,1.94-4.62,5.15,2.07,5.15,4.62,5.15,4.62-1.92,4.62-5.15Z"></path><path class="cls-3" d="m126.35,107.68v7.98c0,3.21-1.99,5.17-5.09,5.17-3.25,0-5.09-1.96-5.09-5.17v-7.98h1.67v7.98c0,2.45,1.25,3.69,3.42,3.69s3.42-1.23,3.42-3.69v-7.98h1.67Z"></path><path class="cls-3" d="m139.76,120.66c-.32.1-.67.15-1.06.15-1.65,0-2.34-.85-3.02-2.11l-1.73-3.23h-2.6v5.24h-1.67v-13.03h4.77c2.43,0,4.24,1.37,4.24,3.93,0,1.99-1.12,3.23-2.77,3.67l1.6,3.1c.42.78.91.91,1.37.91.32,0,.57-.02.76-.09l.13,1.46Zm-5.32-6.57c1.69,0,2.55-1.04,2.55-2.47s-.85-2.47-2.55-2.47h-3.1v4.94h3.1Z"></path><path class="cls-3" d="m147.86,106.2h1.65c-.7.93-2.34,3.86-2.34,8.61s1.65,7.69,2.34,8.61h-1.65c-1.1-1.44-2.41-4.39-2.41-8.61s1.29-7.14,2.41-8.61Z"></path><path class="cls-3" d="m159.64,117.45h-1.69v3.27h-1.67v-3.27h-6.44v-1.48l5.72-8.28h2.39v8.28h1.69v1.48Zm-8-1.48h4.64v-6.63h-.02l-4.62,6.61v.02Z"></path><path class="cls-3" d="m161.96,123.41h-1.65c.68-.91,2.34-3.84,2.34-8.61s-1.63-7.67-2.34-8.61h1.65c1.12,1.46,2.41,4.41,2.41,8.61s-1.31,7.16-2.41,8.61Z"></path><path class="cls-3" d="m8,140.65v6.06h-1.69v-5.7c0-1.42-.76-2.28-2.09-2.28-1.52,0-2.53.97-2.53,2.56v5.41H0v-13.49h1.65v5.55c.59-.85,1.56-1.46,2.98-1.46,2.07,0,3.36,1.33,3.36,3.34Z"></path><path class="cls-3" d="m18.79,142.5h-6.95c.13,1.77,1.14,2.89,2.77,2.89s2.26-.85,2.43-1.61h1.69c-.36,1.69-1.65,3.04-4.14,3.04-2.91,0-4.48-2-4.48-4.73s1.84-4.77,4.45-4.77,4.24,1.77,4.24,4.77v.42Zm-6.92-1.23h5.22c-.21-1.67-1.12-2.53-2.53-2.53s-2.43.97-2.7,2.53Z"></path><path class="cls-3" d="m20.42,142.1c0-2.79,1.8-4.79,4.45-4.79,2.43,0,3.86,1.37,4.1,3.5h-1.79c-.19-1.16-.89-2.07-2.3-2.07-1.67,0-2.75,1.31-2.75,3.32s.99,3.32,2.72,3.32c1.44,0,2.15-.91,2.34-2.01h1.79c-.29,2.07-1.73,3.44-4.2,3.44-2.83,0-4.35-1.98-4.35-4.71Z"></path><path class="cls-3" d="m36.33,146.58c-.3.13-.87.23-1.46.23-2.17,0-3.46-1.22-3.46-3.15v-4.81h-1.41v-1.44h1.5v-2.77h1.58v2.77h3.02v1.41h-3.02v4.84c0,.93.44,1.69,1.96,1.69.42,0,.82-.06,1.22-.23l.08,1.46Z"></path><path class="cls-3" d="m46.61,146.66c-.32.1-.67.15-1.06.15-.97,0-1.62-.61-1.73-1.52-.34.53-1.2,1.52-3.27,1.52s-3.15-1.04-3.15-2.53c0-2.01,1.86-2.85,4.45-2.85h1.96v-.61c0-1.29-.8-2.09-2.3-2.09-1.33,0-2.15.63-2.26,1.75h-1.63c.15-2.01,1.73-3.17,4.01-3.17,2.45,0,3.86,1.31,3.86,3.55v3.8c0,.4.23.63.53.63.17,0,.28-.02.47-.09l.13,1.46Zm-2.81-3.36v-.65h-2.05c-1.75,0-2.64.53-2.64,1.56,0,.78.53,1.25,1.79,1.25,1.88,0,2.91-1.31,2.91-2.17Z"></path><path class="cls-3" d="m52.99,137.37l-.02,1.65c-.08-.04-.25-.08-.63-.08-1.18,0-2.28.99-2.28,2.87v4.9h-1.67v-9.31h1.58l.04,1.5c.46-.91,1.23-1.6,2.45-1.6.25,0,.42.04.53.06Z"></path><path class="cls-3" d="m62.53,142.5h-6.95c.13,1.77,1.14,2.89,2.77,2.89s2.26-.85,2.43-1.61h1.69c-.36,1.69-1.65,3.04-4.14,3.04-2.91,0-4.48-2-4.48-4.73s1.84-4.77,4.45-4.77,4.24,1.77,4.24,4.77v.42Zm-6.92-1.23h5.22c-.21-1.67-1.12-2.53-2.53-2.53s-2.43.97-2.7,2.53Z"></path><path class="cls-3" d="m71.51,144.19c0,1.54-1.33,2.62-3.72,2.62-2.56,0-3.67-1.03-3.7-2.83l1.54.02c.09.89.66,1.39,2.18,1.39s2.05-.49,2.05-1.2c0-2.17-5.53-.63-5.53-4.26,0-1.54,1.31-2.62,3.57-2.62s3.4,1.03,3.48,2.83l-1.56-.02c-.08-.91-.78-1.39-1.96-1.39-1.27,0-1.88.46-1.88,1.2,0,2.13,5.53.51,5.53,4.26Z"></path><path class="cls-3" d="m86.71,142.04c0,2.81-1.82,4.77-4.62,4.77s-4.6-1.84-4.6-4.65,1.84-4.84,4.6-4.84,4.62,1.9,4.62,4.73Zm-7.5.06c0,1.96,1.16,3.29,2.89,3.29s2.91-1.33,2.91-3.29-1.14-3.36-2.91-3.36-2.89,1.39-2.89,3.36Z"></path><path class="cls-3" d="m96.92,140.84v5.87h-1.69v-5.53c0-1.58-.74-2.45-2.13-2.45-1.5,0-2.51.99-2.51,2.56v5.41h-1.67v-9.31h1.58l.08,1.39c.59-.85,1.58-1.48,2.98-1.48,2.05,0,3.36,1.25,3.36,3.53Z"></path><path class="cls-3" d="m102.35,146.66c-.32.1-.67.15-1.06.15-1.08,0-1.75-.74-1.75-1.82v-11.76h1.67v11.44c0,.4.25.63.57.63.15,0,.25-.02.44-.09l.13,1.46Z"></path><path class="cls-3" d="m112.08,137.41l-3.53,9.31-.4,1.04c-.82,2.17-1.71,2.85-3.29,2.85-.53,0-1.08-.1-1.39-.23l.13-1.48c.32.13.55.19.89.19.87,0,1.54-.19,2.07-1.48l.23-.53-3.67-9.67h1.88l2.36,6.61c.13.34.21.61.3.99h.04c.08-.38.15-.65.27-.99l2.39-6.61h1.71Z"></path></g><g><path class="cls-4" d="m69.33,13.27v1.64h-9.68V.5h9.57v1.66h-7.73v4.43h7.05v1.66h-7.05v5.02h7.83Z"></path><path class="cls-4" d="m77.85,14.91l-2.52-3.97-2.52,3.97h-2.08l3.51-5.23-3.59-5.06h2.18l2.5,3.76,2.5-3.76h2.1l-3.49,5,3.57,5.29h-2.16Z"></path><path class="cls-4" d="m82.83,2.52c-.71,0-1.28-.52-1.28-1.26s.57-1.26,1.28-1.26,1.28.55,1.28,1.26-.57,1.26-1.28,1.26Zm-.99,2.1h1.87v10.29h-1.87V4.62Z"></path><path class="cls-4" d="m94.28,12.11c0,1.7-1.47,2.9-4.12,2.9-2.83,0-4.05-1.13-4.09-3.13l1.7.02c.11.99.74,1.53,2.42,1.53s2.27-.55,2.27-1.32c0-2.39-6.11-.69-6.11-4.7,0-1.7,1.45-2.9,3.95-2.9s3.76,1.13,3.84,3.13l-1.72-.02c-.08-1.01-.86-1.53-2.16-1.53-1.41,0-2.08.5-2.08,1.32,0,2.35,6.11.57,6.11,4.7Z"></path><path class="cls-4" d="m102.49,14.76c-.34.15-.97.25-1.62.25-2.39,0-3.82-1.34-3.82-3.49v-5.31h-1.55v-1.6h1.66V1.55h1.74v3.07h3.34v1.55h-3.34v5.35c0,1.03.48,1.87,2.16,1.87.46,0,.9-.06,1.34-.25l.08,1.62Z"></path><path class="cls-4" d="m105.34,2.52c-.71,0-1.28-.52-1.28-1.26s.57-1.26,1.28-1.26,1.28.55,1.28,1.26-.57,1.26-1.28,1.26Zm-.99,2.1h1.87v10.29h-1.87V4.62Z"></path><path class="cls-4" d="m118.13,8.42v6.49h-1.87v-6.11c0-1.74-.82-2.71-2.35-2.71-1.66,0-2.77,1.09-2.77,2.83v5.98h-1.85V4.62h1.74l.08,1.53c.65-.94,1.74-1.64,3.3-1.64,2.27,0,3.72,1.39,3.72,3.91Z"></path><path class="cls-4" d="m130.42,4.62v10.5c0,2.39-1.74,4.2-4.96,4.2-2.79,0-4.39-1.13-4.64-3.3h1.85c.23,1.24,1.11,1.72,2.77,1.72,2.16,0,3.13-1.2,3.13-2.62v-1.78c-.61.99-1.68,1.68-3.34,1.68-2.83,0-4.77-2.1-4.77-5.27s1.93-5.23,4.77-5.23c1.68,0,2.75.71,3.36,1.72l.08-1.62h1.74Zm-1.85,5.35v-.42c0-1.55-1.01-3.46-3.21-3.46-1.81,0-3,1.47-3,3.65s1.2,3.7,3,3.7c2.21,0,3.21-1.91,3.21-3.46Z"></path></g><g><path class="cls-4" d="m378.65,1.81v14.4h-1.89l-7.54-11.53v11.53h-1.85V1.81h1.89l7.54,11.51V1.81h1.85Z"></path><path class="cls-4" d="m390.85,11.55h-7.68c.15,1.95,1.26,3.19,3.07,3.19s2.5-.94,2.69-1.78h1.87c-.4,1.87-1.83,3.36-4.58,3.36-3.21,0-4.96-2.2-4.96-5.23s2.04-5.27,4.91-5.27,4.68,1.95,4.68,5.27v.46Zm-7.64-1.36h5.77c-.23-1.85-1.24-2.79-2.79-2.79s-2.69,1.07-2.98,2.79Z"></path><path class="cls-4" d="m407.18,5.93l-3.15,10.29h-2.18l-2.08-7.22c-.06-.23-.13-.55-.15-.71h-.04c-.02.17-.08.48-.15.71l-2.08,7.22h-2.18l-3.15-10.29h2.08l1.91,7.31c.13.46.27.92.31,1.09h.04c.04-.17.19-.63.32-1.09l1.97-7.31h1.89l1.97,7.31c.13.46.27.92.31,1.09h.04c.04-.17.17-.55.32-1.09l1.91-7.31h2.08Z"></path></g><rect class="cls-2" x="10.11" y="41.01" width="172.17" height="1"></rect><g><path class="cls-1" d="m306.85,73.19c0,2.71-1.97,4.26-4.66,4.26h-3.61v5.96h-1.85v-14.4h5.46c2.69,0,4.66,1.47,4.66,4.18Zm-1.87.04c0-1.45-.94-2.6-2.79-2.6h-3.61v5.21h3.61c1.85,0,2.79-1.15,2.79-2.6Z"></path><path class="cls-1" d="m317.84,76.72v6.7h-1.87v-6.3c0-1.57-.84-2.52-2.31-2.52-1.68,0-2.79,1.07-2.79,2.83v5.98h-1.87v-14.91h1.83v6.13c.65-.94,1.72-1.62,3.3-1.62,2.29,0,3.72,1.47,3.72,3.7Z"></path><path class="cls-1" d="m330.84,78.15c0,3.17-1.93,5.38-4.81,5.38-1.68,0-2.77-.69-3.38-1.68v5.77h-1.85v-14.49h1.81l.04,1.72c.65-1.05,1.83-1.83,3.51-1.83,2.79,0,4.68,1.99,4.68,5.12Zm-1.89.04c0-2.18-1.16-3.59-3-3.59-2.25,0-3.3,1.91-3.3,3.42v.46c0,1.55,1.01,3.46,3.25,3.46,1.85,0,3.04-1.53,3.04-3.76Z"></path><path class="cls-1" d="m347.89,79.81h-1.87v3.61h-1.85v-3.61h-7.12v-1.64l6.32-9.15h2.65v9.15h1.87v1.64Zm-8.84-1.64h5.12v-7.33h-.02l-5.1,7.31v.02Z"></path><path class="cls-1" d="m349.72,76.22c0-4.77,2.04-7.37,5.42-7.37s5.4,2.6,5.4,7.37-2.02,7.31-5.4,7.31-5.42-2.54-5.42-7.31Zm8.94,0c0-3.74-1.26-5.73-3.53-5.73s-3.55,1.99-3.55,5.73,1.28,5.67,3.55,5.67,3.53-1.91,3.53-5.67Z"></path><path class="cls-1" d="m363.81,83.75s-.13.02-.27.02c-.8,0-1.28-.55-1.28-1.28,0-.8.57-1.3,1.32-1.3.71,0,1.43.46,1.43,1.85,0,2.04-1.51,3.49-2.75,3.42v-1.05c.76,0,1.55-.82,1.55-1.66Z"></path><path class="cls-1" d="m366.68,76.22c0-4.77,2.04-7.37,5.42-7.37s5.4,2.6,5.4,7.37-2.02,7.31-5.4,7.31-5.42-2.54-5.42-7.31Zm8.94,0c0-3.74-1.26-5.73-3.53-5.73s-3.55,1.99-3.55,5.73,1.28,5.67,3.55,5.67,3.53-1.91,3.53-5.67Z"></path><path class="cls-1" d="m379.64,76.22c0-4.77,2.04-7.37,5.42-7.37s5.4,2.6,5.4,7.37-2.02,7.31-5.4,7.31-5.42-2.54-5.42-7.31Zm8.94,0c0-3.74-1.26-5.73-3.53-5.73s-3.55,1.99-3.55,5.73,1.28,5.67,3.55,5.67,3.53-1.91,3.53-5.67Z"></path><path class="cls-1" d="m392.6,76.22c0-4.77,2.04-7.37,5.42-7.37s5.4,2.6,5.4,7.37-2.02,7.31-5.4,7.31-5.42-2.54-5.42-7.31Zm8.94,0c0-3.74-1.26-5.73-3.53-5.73s-3.55,1.99-3.55,5.73,1.28,5.67,3.55,5.67,3.53-1.91,3.53-5.67Z"></path><path class="cls-1" d="m415.86,68.6h1.85l-6.05,15.24h-1.89l6.09-15.24Z"></path><path class="cls-1" d="m433.36,76.72v6.7h-1.87v-6.3c0-1.57-.84-2.52-2.31-2.52-1.68,0-2.79,1.07-2.79,2.83v5.98h-1.87v-14.91h1.83v6.13c.65-.94,1.72-1.62,3.3-1.62,2.29,0,3.72,1.47,3.72,3.7Z"></path><path class="cls-1" d="m445.28,78.76h-7.68c.15,1.95,1.26,3.19,3.06,3.19s2.5-.94,2.69-1.78h1.87c-.4,1.87-1.83,3.36-4.58,3.36-3.21,0-4.96-2.2-4.96-5.23s2.04-5.27,4.91-5.27,4.68,1.95,4.68,5.27v.46Zm-7.64-1.36h5.77c-.23-1.85-1.24-2.79-2.79-2.79s-2.69,1.07-2.98,2.79Z"></path><path class="cls-1" d="m447.09,78.32c0-3.09,1.99-5.29,4.91-5.29,2.69,0,4.26,1.51,4.54,3.86h-1.97c-.21-1.28-.99-2.29-2.54-2.29-1.85,0-3.04,1.45-3.04,3.67s1.09,3.67,3,3.67c1.6,0,2.37-1.01,2.58-2.23h1.97c-.31,2.29-1.91,3.8-4.64,3.8-3.13,0-4.81-2.18-4.81-5.21Z"></path><path class="cls-1" d="m464.67,83.27c-.34.15-.97.25-1.62.25-2.39,0-3.82-1.34-3.82-3.49v-5.31h-1.55v-1.6h1.66v-3.07h1.74v3.07h3.34v1.55h-3.34v5.35c0,1.03.48,1.87,2.16,1.87.46,0,.9-.06,1.34-.25l.08,1.62Z"></path><path class="cls-1" d="m476.03,83.36c-.36.1-.73.17-1.18.17-1.07,0-1.78-.67-1.91-1.68-.38.59-1.32,1.68-3.61,1.68s-3.49-1.15-3.49-2.79c0-2.23,2.06-3.15,4.91-3.15h2.16v-.67c0-1.43-.88-2.31-2.54-2.31-1.47,0-2.37.69-2.5,1.93h-1.8c.17-2.23,1.91-3.51,4.43-3.51,2.71,0,4.26,1.45,4.26,3.93v4.2c0,.44.25.69.59.69.19,0,.32-.02.53-.1l.15,1.62Zm-3.11-3.72v-.71h-2.27c-1.93,0-2.92.59-2.92,1.72,0,.86.59,1.39,1.97,1.39,2.08,0,3.21-1.45,3.21-2.39Z"></path><path class="cls-1" d="m483.08,73.09l-.02,1.83c-.08-.04-.27-.08-.69-.08-1.3,0-2.52,1.09-2.52,3.17v5.42h-1.85v-10.29h1.74l.04,1.66c.5-1.01,1.36-1.76,2.71-1.76.27,0,.46.04.59.06Z"></path><path class="cls-1" d="m493.62,78.76h-7.68c.15,1.95,1.26,3.19,3.07,3.19s2.5-.94,2.69-1.78h1.87c-.4,1.87-1.83,3.36-4.58,3.36-3.21,0-4.96-2.2-4.96-5.23s2.04-5.27,4.91-5.27,4.68,1.95,4.68,5.27v.46Zm-7.64-1.36h5.77c-.23-1.85-1.24-2.79-2.79-2.79s-2.69,1.07-2.98,2.79Z"></path></g><g><path class="cls-3" d="m303.12,119.23v1.48h-8.57v-13.03h1.67v11.55h6.9Z"></path><path class="cls-3" d="m305.61,109.51c-.65,0-1.16-.47-1.16-1.14s.51-1.14,1.16-1.14,1.16.49,1.16,1.14-.51,1.14-1.16,1.14Zm-.89,1.9h1.69v9.31h-1.69v-9.31Z"></path><path class="cls-3" d="m323.2,114.79v5.93h-1.69v-5.58c0-1.56-.8-2.39-2.11-2.39-1.42,0-2.38.95-2.38,2.56v5.41h-1.69v-5.58c0-1.56-.8-2.39-2.11-2.39-1.42,0-2.38.95-2.38,2.56v5.41h-1.67v-9.31h1.58l.08,1.35c.57-.84,1.52-1.44,2.85-1.44,1.5,0,2.56.7,3.06,1.9.51-1.08,1.56-1.9,3.12-1.9,2.07,0,3.34,1.35,3.34,3.48Z"></path><path class="cls-3" d="m326.78,109.51c-.65,0-1.16-.47-1.16-1.14s.51-1.14,1.16-1.14,1.16.49,1.16,1.14-.51,1.14-1.16,1.14Zm-.89,1.9h1.69v9.31h-1.69v-9.31Z"></path><path class="cls-3" d="m335.71,120.58c-.3.13-.87.23-1.46.23-2.17,0-3.46-1.22-3.46-3.15v-4.81h-1.41v-1.44h1.5v-2.77h1.58v2.77h3.02v1.41h-3.02v4.84c0,.93.44,1.69,1.96,1.69.42,0,.82-.06,1.22-.23l.08,1.46Z"></path><path class="cls-3" d="m345.36,116.5h-6.95c.13,1.77,1.14,2.89,2.77,2.89s2.26-.85,2.43-1.61h1.69c-.36,1.69-1.65,3.04-4.14,3.04-2.91,0-4.48-2-4.48-4.73s1.84-4.77,4.45-4.77,4.24,1.77,4.24,4.77v.42Zm-6.92-1.23h5.22c-.21-1.67-1.12-2.53-2.53-2.53s-2.43.97-2.7,2.53Z"></path><path class="cls-3" d="m356.07,107.23v13.49h-1.63l-.04-1.56c-.59.95-1.65,1.65-3.17,1.65-2.53,0-4.24-1.81-4.24-4.64s1.75-4.86,4.35-4.86c1.52,0,2.51.63,3.06,1.52v-5.6h1.67Zm-1.67,9.06v-.42c0-1.41-.91-3.13-2.94-3.13-1.67,0-2.75,1.39-2.75,3.4s1.04,3.25,2.72,3.25c2.03,0,2.98-1.73,2.98-3.1Z"></path><path class="cls-3" d="m368.58,120.58c-.3.13-.87.23-1.46.23-2.17,0-3.46-1.22-3.46-3.15v-4.81h-1.41v-1.44h1.5v-2.77h1.58v2.77h3.02v1.41h-3.02v4.84c0,.93.44,1.69,1.96,1.69.42,0,.82-.06,1.22-.23l.08,1.46Z"></path><path class="cls-3" d="m378.76,116.04c0,2.81-1.82,4.77-4.62,4.77s-4.6-1.84-4.6-4.65,1.84-4.84,4.6-4.84,4.62,1.9,4.62,4.73Zm-7.5.06c0,1.96,1.16,3.29,2.89,3.29s2.91-1.33,2.91-3.29-1.14-3.36-2.91-3.36-2.89,1.39-2.89,3.36Z"></path><path class="cls-3" d="m387.35,109.11v4.48h5.87v1.44h-5.87v5.68h-1.67v-13.03h8.38v1.42h-6.71Z"></path><path class="cls-3" d="m395.27,114.26c0-4.12,2.77-6.69,6.31-6.69s6.31,2.45,6.31,6.57-2.77,6.69-6.31,6.69-6.31-2.45-6.31-6.57Zm10.92-.06c0-3.21-2.07-5.15-4.62-5.15s-4.62,1.94-4.62,5.15,2.07,5.15,4.62,5.15,4.62-1.92,4.62-5.15Z"></path><path class="cls-3" d="m420.56,107.68v7.98c0,3.21-1.99,5.17-5.09,5.17-3.25,0-5.09-1.96-5.09-5.17v-7.98h1.67v7.98c0,2.45,1.25,3.69,3.42,3.69s3.42-1.23,3.42-3.69v-7.98h1.67Z"></path><path class="cls-3" d="m433.97,120.66c-.32.1-.67.15-1.06.15-1.65,0-2.34-.85-3.02-2.11l-1.73-3.23h-2.6v5.24h-1.67v-13.03h4.77c2.43,0,4.24,1.37,4.24,3.93,0,1.99-1.12,3.23-2.77,3.67l1.6,3.1c.42.78.91.91,1.37.91.32,0,.57-.02.76-.09l.13,1.46Zm-5.32-6.57c1.69,0,2.55-1.04,2.55-2.47s-.85-2.47-2.55-2.47h-3.1v4.94h3.1Z"></path><path class="cls-3" d="m442.07,106.2h1.65c-.7.93-2.34,3.86-2.34,8.61s1.65,7.69,2.34,8.61h-1.65c-1.1-1.44-2.41-4.39-2.41-8.61s1.29-7.14,2.41-8.61Z"></path><path class="cls-3" d="m453.85,117.45h-1.69v3.27h-1.67v-3.27h-6.44v-1.48l5.72-8.28h2.39v8.28h1.69v1.48Zm-8-1.48h4.64v-6.63h-.02l-4.62,6.61v.02Z"></path><path class="cls-3" d="m456.17,123.41h-1.65c.68-.91,2.34-3.84,2.34-8.61s-1.63-7.67-2.34-8.61h1.65c1.12,1.46,2.41,4.41,2.41,8.61s-1.31,7.16-2.41,8.61Z"></path><path class="cls-3" d="m302.21,140.65v6.06h-1.69v-5.7c0-1.42-.76-2.28-2.09-2.28-1.52,0-2.53.97-2.53,2.56v5.41h-1.69v-13.49h1.65v5.55c.59-.85,1.56-1.46,2.98-1.46,2.07,0,3.36,1.33,3.36,3.34Z"></path><path class="cls-3" d="m313,142.5h-6.95c.13,1.77,1.14,2.89,2.77,2.89s2.26-.85,2.43-1.61h1.69c-.36,1.69-1.65,3.04-4.14,3.04-2.91,0-4.48-2-4.48-4.73s1.84-4.77,4.45-4.77,4.24,1.77,4.24,4.77v.42Zm-6.92-1.23h5.22c-.21-1.67-1.12-2.53-2.53-2.53s-2.43.97-2.7,2.53Z"></path><path class="cls-3" d="m314.63,142.1c0-2.79,1.8-4.79,4.45-4.79,2.43,0,3.86,1.37,4.1,3.5h-1.79c-.19-1.16-.89-2.07-2.3-2.07-1.67,0-2.75,1.31-2.75,3.32s.99,3.32,2.72,3.32c1.44,0,2.15-.91,2.34-2.01h1.79c-.29,2.07-1.73,3.44-4.2,3.44-2.83,0-4.35-1.98-4.35-4.71Z"></path><path class="cls-3" d="m330.54,146.58c-.3.13-.87.23-1.46.23-2.17,0-3.46-1.22-3.46-3.15v-4.81h-1.41v-1.44h1.5v-2.77h1.58v2.77h3.02v1.41h-3.02v4.84c0,.93.44,1.69,1.96,1.69.42,0,.82-.06,1.22-.23l.08,1.46Z"></path><path class="cls-3" d="m340.82,146.66c-.32.1-.67.15-1.06.15-.97,0-1.62-.61-1.73-1.52-.34.53-1.2,1.52-3.27,1.52s-3.15-1.04-3.15-2.53c0-2.01,1.86-2.85,4.45-2.85h1.96v-.61c0-1.29-.8-2.09-2.3-2.09-1.33,0-2.15.63-2.26,1.75h-1.63c.15-2.01,1.73-3.17,4.01-3.17,2.45,0,3.86,1.31,3.86,3.55v3.8c0,.4.23.63.53.63.17,0,.28-.02.47-.09l.13,1.46Zm-2.81-3.36v-.65h-2.05c-1.75,0-2.64.53-2.64,1.56,0,.78.53,1.25,1.79,1.25,1.88,0,2.91-1.31,2.91-2.17Z"></path><path class="cls-3" d="m347.2,137.37l-.02,1.65c-.08-.04-.25-.08-.63-.08-1.18,0-2.28.99-2.28,2.87v4.9h-1.67v-9.31h1.58l.04,1.5c.46-.91,1.23-1.6,2.45-1.6.25,0,.42.04.53.06Z"></path><path class="cls-3" d="m356.74,142.5h-6.95c.13,1.77,1.14,2.89,2.77,2.89s2.26-.85,2.43-1.61h1.69c-.36,1.69-1.65,3.04-4.14,3.04-2.91,0-4.48-2-4.48-4.73s1.84-4.77,4.45-4.77,4.24,1.77,4.24,4.77v.42Zm-6.92-1.23h5.22c-.21-1.67-1.12-2.53-2.53-2.53s-2.43.97-2.7,2.53Z"></path><path class="cls-3" d="m365.72,144.19c0,1.54-1.33,2.62-3.72,2.62-2.56,0-3.67-1.03-3.7-2.83l1.54.02c.09.89.66,1.39,2.18,1.39s2.05-.49,2.05-1.2c0-2.17-5.53-.63-5.53-4.26,0-1.54,1.31-2.62,3.57-2.62s3.4,1.03,3.48,2.83l-1.56-.02c-.08-.91-.78-1.39-1.96-1.39-1.27,0-1.88.46-1.88,1.2,0,2.13,5.53.51,5.53,4.26Z"></path><path class="cls-3" d="m380.92,142.04c0,2.81-1.82,4.77-4.62,4.77s-4.6-1.84-4.6-4.65,1.84-4.84,4.6-4.84,4.62,1.9,4.62,4.73Zm-7.5.06c0,1.96,1.16,3.29,2.89,3.29s2.91-1.33,2.91-3.29-1.14-3.36-2.91-3.36-2.89,1.39-2.89,3.36Z"></path><path class="cls-3" d="m391.13,140.84v5.87h-1.69v-5.53c0-1.58-.74-2.45-2.13-2.45-1.5,0-2.51.99-2.51,2.56v5.41h-1.67v-9.31h1.58l.08,1.39c.59-.85,1.58-1.48,2.98-1.48,2.05,0,3.36,1.25,3.36,3.53Z"></path><path class="cls-3" d="m396.56,146.66c-.32.1-.67.15-1.06.15-1.08,0-1.75-.74-1.75-1.82v-11.76h1.67v11.44c0,.4.25.63.57.63.15,0,.25-.02.44-.09l.13,1.46Z"></path><path class="cls-3" d="m406.29,137.41l-3.53,9.31-.4,1.04c-.82,2.17-1.71,2.85-3.29,2.85-.53,0-1.08-.1-1.39-.23l.13-1.48c.32.13.55.19.89.19.87,0,1.54-.19,2.07-1.48l.23-.53-3.67-9.67h1.88l2.36,6.61c.13.34.21.61.3.99h.04c.08-.38.15-.65.27-.99l2.39-6.61h1.71Z"></path></g><rect class="cls-2" x="310.63" y="41.01" width="162.43" height="1"></rect></g></g></svg>